<svg width="1000" height="1000" viewBox="0 0 1000 1000" fill="none" xmlns="http://www.w3.org/2000/svg">
<path d="M635.65 863.26C635.65 862.53 635.65 861.84 635.65 861.16" stroke="#11D467" stroke-width="3" stroke-linecap="round" stroke-linejoin="round"/>
<path d="M442.94 453.1L442.06 452.85L440.91 452.53C440.877 452.52 440.843 452.52 440.81 452.53C440.2 452.35 439.58 452.2 438.96 452.06C438.34 451.92 437.79 451.79 437.21 451.68C436.88 451.6 436.53 451.52 436.21 451.46L441.93 452.57L442.07 452.87C442.34 452.91 442.64 453 442.94 453.1Z" stroke="#11D467" stroke-width="3" stroke-linecap="round" stroke-linejoin="round"/>
<path d="M459.26 460.23C459.027 460.11 458.797 459.98 458.57 459.84C458.09 459.56 457.57 459.28 457.12 459.01C457.84 459.4 458.55 459.81 459.26 460.23Z" stroke="#11D467" stroke-width="3" stroke-linecap="round" stroke-linejoin="round"/>
<path d="M460.75 461.14C460.62 461.06 460.48 460.97 460.34 460.9C459.98 460.67 459.63 460.45 459.27 460.24C459.63 460.44 459.98 460.66 460.33 460.87L460.75 461.14Z" stroke="#11D467" stroke-width="3" stroke-linecap="round" stroke-linejoin="round"/>
<path d="M487.35 489.8C486.91 488.95 486.44 488.11 485.96 487.28C486.21 487.71 486.44 488.15 486.69 488.59C486.94 489.03 487.13 489.4 487.35 489.8Z" stroke="#11D467" stroke-width="3" stroke-linecap="round" stroke-linejoin="round"/>
<path d="M493.09 503.39C492.74 502.27 492.36 501.16 491.95 500.05C492.17 500.65 492.38 501.26 492.58 501.88C492.76 502.38 492.93 502.89 493.09 503.39Z" stroke="#11D467" stroke-width="3" stroke-linecap="round" stroke-linejoin="round"/>
<path d="M495.17 511.15C495.03 510.52 494.88 509.91 494.73 509.29C494.58 508.67 494.41 507.99 494.24 507.29C494.6 508.59 494.9 509.86 495.17 511.15Z" stroke="#11D467" stroke-width="3" stroke-linecap="round" stroke-linejoin="round"/>
<path d="M496.91 533.21V533.32V533.78V533.21Z" stroke="#11D467" stroke-width="3" stroke-linecap="round" stroke-linejoin="round"/>
<path d="M497 527.49V527.92C497 527.7 497 527.49 497 527.26C497 527.34 497 527.41 497 527.49Z" stroke="#11D467" stroke-width="3" stroke-linecap="round" stroke-linejoin="round"/>
<path d="M407.5 609.89L406.62 609.72L405.89 609.58L407.11 609.8L407.5 609.89Z" stroke="#11D467" stroke-width="3" stroke-linecap="round" stroke-linejoin="round"/>
<path d="M412.83 610.56L413.64 610.63C413.05 610.63 412.46 610.55 411.87 610.47L412.83 610.56Z" stroke="#11D467" stroke-width="3" stroke-linecap="round" stroke-linejoin="round"/>
<path d="M438.36 608.27L439.57 607.93C438.91 608.14 438.24 608.32 437.57 608.48L438.36 608.27Z" stroke="#11D467" stroke-width="3" stroke-linecap="round" stroke-linejoin="round"/>
<path d="M451.78 603.2C452.28 602.95 452.78 602.71 453.28 602.45C452.58 602.82 451.87 603.17 451.16 603.51L451.78 603.2Z" stroke="#11D467" stroke-width="3" stroke-linecap="round" stroke-linejoin="round"/>
<path d="M453.28 602.45C453.81 602.18 454.28 601.9 454.84 601.61H454.78C454.28 601.92 453.79 602.19 453.28 602.45Z" stroke="#11D467" stroke-width="3" stroke-linecap="round" stroke-linejoin="round"/>
<path d="M490.68 561C490.84 560.61 491 560.24 491.15 559.85C491.01 560.24 490.85 560.63 490.69 561.02C490.53 561.41 490.47 561.57 490.35 561.84L490.61 561.2C490.638 561.135 490.661 561.068 490.68 561V561Z" stroke="#11D467" stroke-width="3" stroke-linecap="round" stroke-linejoin="round"/>
<path d="M494.18 550.6C494.32 550.05 494.46 549.52 494.59 548.98C494.53 549.2 494.48 549.44 494.42 549.67L494.18 550.6Z" stroke="#11D467" stroke-width="3" stroke-linecap="round" stroke-linejoin="round"/>
<path d="M496.78 535.39C496.66 537.15 496.47 538.9 496.22 540.66C496.08 541.66 495.92 542.66 495.71 543.66C495.87 542.82 496.01 542 496.12 541.16C496.12 540.98 496.18 540.81 496.2 540.64C496.26 540.22 496.32 539.81 496.37 539.39C496.46 538.7 496.53 538.02 496.6 537.32C496.67 536.62 496.73 536 496.78 535.39Z" stroke="#11D467" stroke-width="3" stroke-linecap="round" stroke-linejoin="round"/>
<path d="M407.13 609.83L406.64 609.75L405.91 609.61L407.13 609.83Z" stroke="#11D467" stroke-width="3" stroke-linecap="round" stroke-linejoin="round"/>
<path d="M413.64 610.63C413.05 610.63 412.46 610.55 411.87 610.47L412.87 610.56L413.64 610.63Z" stroke="#11D467" stroke-width="3" stroke-linecap="round" stroke-linejoin="round"/>
<path d="M426.61 610.47C426.07 610.53 425.53 610.57 424.98 610.61L423.63 610.72C424.62 610.67 425.62 610.58 426.61 610.47Z" stroke="#11D467" stroke-width="3" stroke-linecap="round" stroke-linejoin="round"/>
<path d="M429.53 610.12L427.97 610.31L426.61 610.47C427.58 610.38 428.56 610.26 429.53 610.12Z" stroke="#11D467" stroke-width="3" stroke-linecap="round" stroke-linejoin="round"/>
<path d="M439.57 607.93C438.91 608.14 438.24 608.32 437.57 608.48L438.34 608.27L439.57 607.93Z" stroke="#11D467" stroke-width="3" stroke-linecap="round" stroke-linejoin="round"/>
<path d="M440.8 452.5C440.19 452.32 439.57 452.17 438.95 452.03L439.69 452.22C440.06 452.3 440.43 452.4 440.8 452.5Z" stroke="#11D467" stroke-width="3" stroke-linecap="round" stroke-linejoin="round"/>
<path d="M442.94 453.1L442.06 452.85L440.91 452.53C441.29 452.61 441.67 452.72 442.06 452.84C442.45 452.96 442.64 453 442.94 453.1Z" stroke="#11D467" stroke-width="3" stroke-linecap="round" stroke-linejoin="round"/>
<path d="M445.39 606L444.1 606.47L442.56 607.01C443.5 606.69 444.45 606.35 445.39 606Z" stroke="#11D467" stroke-width="3" stroke-linecap="round" stroke-linejoin="round"/>
<path d="M453.28 602.45C452.58 602.82 451.87 603.17 451.16 603.51L451.78 603.2C452.28 603 452.79 602.71 453.28 602.45Z" stroke="#11D467" stroke-width="3" stroke-linecap="round" stroke-linejoin="round"/>
<path d="M454.84 601.61H454.78C454.28 601.88 453.78 602.15 453.28 602.41C453.81 602.18 454.32 601.9 454.84 601.61Z" stroke="#11D467" stroke-width="3" stroke-linecap="round" stroke-linejoin="round"/>
<path d="M459.26 460.23C459.027 460.11 458.797 459.98 458.57 459.84C458.09 459.56 457.57 459.28 457.12 459.01C457.84 459.4 458.55 459.81 459.26 460.23Z" stroke="#11D467" stroke-width="3" stroke-linecap="round" stroke-linejoin="round"/>
<path d="M460.75 461.14C460.62 461.06 460.48 460.97 460.34 460.9C459.98 460.67 459.63 460.45 459.27 460.24C459.63 460.44 459.98 460.66 460.33 460.87L460.75 461.14Z" stroke="#11D467" stroke-width="3" stroke-linecap="round" stroke-linejoin="round"/>
<path d="M464.7 595.2L463 596.48L462.48 596.87C463.21 596.33 464 595.77 464.7 595.2Z" stroke="#11D467" stroke-width="3" stroke-linecap="round" stroke-linejoin="round"/>
<path d="M484.68 485.19C484.28 484.56 483.87 483.92 483.46 483.3C483.65 483.58 483.84 483.85 484.02 484.14C484.2 484.43 484.46 484.84 484.68 485.19Z" stroke="#11D467" stroke-width="3" stroke-linecap="round" stroke-linejoin="round"/>
<path d="M491.15 559.82C491.01 560.21 490.85 560.6 490.69 560.99C490.53 561.38 490.47 561.54 490.35 561.81L490.61 561.17C490.638 561.105 490.661 561.038 490.68 560.97C490.84 560.58 491 560.21 491.15 559.82Z" stroke="#11D467" stroke-width="3" stroke-linecap="round" stroke-linejoin="round"/>
<path d="M493.09 503.39C492.74 502.27 492.36 501.16 491.95 500.05C492.17 500.65 492.38 501.26 492.58 501.88C492.76 502.38 492.93 502.89 493.09 503.39Z" stroke="#11D467" stroke-width="3" stroke-linecap="round" stroke-linejoin="round"/>
<path d="M487.35 489.8C486.91 488.95 486.44 488.11 485.96 487.28C486.21 487.71 486.44 488.15 486.69 488.59C486.94 489.03 487.13 489.4 487.35 489.8Z" stroke="#11D467" stroke-width="3" stroke-linecap="round" stroke-linejoin="round"/>
<path d="M491.58 499.09C491.37 498.5 491.14 497.92 490.9 497.34C491.01 497.64 491.13 497.95 491.26 498.26C491.39 498.57 491.48 498.81 491.58 499.09Z" stroke="#11D467" stroke-width="3" stroke-linecap="round" stroke-linejoin="round"/>
<path d="M495.17 511.15C495.03 510.52 494.88 509.91 494.73 509.29C494.58 508.67 494.41 507.99 494.24 507.29C494.6 508.59 494.9 509.86 495.17 511.15Z" stroke="#11D467" stroke-width="3" stroke-linecap="round" stroke-linejoin="round"/>
<path d="M492.33 556.63C492.26 556.84 492.19 557.05 492.11 557.26C492.03 557.47 491.9 557.86 491.78 558.16C492 557.65 492.15 557.14 492.33 556.63Z" stroke="#11D467" stroke-width="3" stroke-linecap="round" stroke-linejoin="round"/>
<path d="M494.59 549C494.53 549.22 494.48 549.46 494.42 549.69L494.18 550.62C494.32 550.05 494.46 549.52 494.59 549Z" stroke="#11D467" stroke-width="3" stroke-linecap="round" stroke-linejoin="round"/>
<path d="M494.18 550.6C494.11 550.82 494.06 551.04 493.99 551.27C493.92 551.5 493.78 552.03 493.66 552.41C493.84 551.81 494 551.2 494.18 550.6Z" stroke="#11D467" stroke-width="3" stroke-linecap="round" stroke-linejoin="round"/>
<path d="M496.78 535.39C496.66 537.15 496.47 538.9 496.22 540.66C496.08 541.66 495.92 542.66 495.71 543.66C495.87 542.82 496.01 542 496.12 541.16C496.12 540.98 496.18 540.81 496.2 540.64C496.26 540.22 496.32 539.81 496.37 539.39C496.46 538.7 496.53 538.02 496.6 537.32C496.67 536.62 496.73 536 496.78 535.39Z" stroke="#11D467" stroke-width="3" stroke-linecap="round" stroke-linejoin="round"/>
<path d="M497 527.49V527.92C497 527.7 497 527.49 497 527.26C497 527.34 497 527.41 497 527.49Z" stroke="#11D467" stroke-width="3" stroke-linecap="round" stroke-linejoin="round"/>
<path d="M497 528.71V529.36C497 529.86 497 530.36 497 530.89C497 530.17 497 529.43 497 528.71Z" stroke="#11D467" stroke-width="3" stroke-linecap="round" stroke-linejoin="round"/>
<path d="M496.91 533.21V533.32V533.78V533.21Z" stroke="#11D467" stroke-width="3" stroke-linecap="round" stroke-linejoin="round"/>
<path d="M646.73 274.8C646.46 273.8 646.17 272.75 645.87 271.74L645.45 270.39C645.3 269.92 645.16 269.45 645.01 268.98C644.86 268.51 644.75 268.27 644.62 267.91C644.42 267.33 644.21 266.75 644 266.17C643.72 265.41 643.43 264.66 643.13 263.91L642.44 262.23L642.12 261.45C641.96 261.09 641.78 260.74 641.62 260.37C641.23 259.52 640.84 258.67 640.43 257.82L639.57 256.1C639.15 255.28 638.71 254.46 638.26 253.64L637.73 252.64C637.59 252.4 637.45 252.18 637.31 251.95C636.93 251.28 636.54 250.63 636.14 249.95C635.74 249.27 635.41 248.77 635.04 248.18C634.67 247.59 634.2 246.91 633.77 246.28C633.34 245.65 633 245.14 632.6 244.58C632.2 244.02 631.71 243.35 631.25 242.75C630.79 242.15 630.43 241.65 630.01 241.11C629.59 240.57 629.01 239.93 628.58 239.34C628.26 238.96 627.96 238.57 627.64 238.19L627.24 237.74C626.89 237.33 626.53 236.94 626.18 236.55C625.64 235.94 625.09 235.34 624.54 234.75L623.4 233.57C622.84 233 622.28 232.44 621.71 231.88L620.53 230.75C619.94 230.2 619.34 229.66 618.74 229.13C618.35 228.78 617.96 228.42 617.56 228.13L617.09 227.72C616.72 227.4 616.33 227.11 615.95 226.8C615.38 226.33 614.81 225.86 614.23 225.41C613.65 224.96 613.15 224.59 612.61 224.19C612.07 223.79 611.44 223.31 610.84 222.89C610.24 222.47 609.73 222.12 609.16 221.74C608.59 221.36 607.95 220.93 607.34 220.53C606.73 220.13 606.19 219.82 605.61 219.47C605.03 219.12 604.37 218.71 603.74 218.35L603.11 217.97L602.18 217.48C601.31 217.01 600.43 216.54 599.55 216.1L598 215.33C597.08 214.89 596.15 214.47 595.22 214.06C594.87 213.91 594.54 213.74 594.22 213.59L593.72 213.39L592.06 212.74C591.37 212.46 590.67 212.19 589.96 211.94C589.25 211.69 588.82 211.54 588.25 211.35C587.68 211.16 587.35 211.02 586.89 210.88L586.06 210.63L584.69 210.22C583.89 209.99 583.09 209.77 582.29 209.57L580.92 209.22L580.23 209.05C579.47 208.87 578.7 208.72 577.94 208.56L577.27 208.42C576.17 208.21 575.06 208.02 573.95 207.85L573.56 207.8C573.26 207.75 572.95 207.72 572.65 207.68C571.65 207.55 570.73 207.43 569.76 207.34L568.67 207.24L567.88 207.16C566.95 207.09 566.01 207.04 565.07 207H564.94C563.94 207 562.94 206.94 561.94 206.94H561.2H560.2C559.2 206.94 558.2 207 557.13 207.06L556.33 207.11H555.98C554.84 207.2 553.7 207.31 552.55 207.44L551.68 207.56C551.07 207.63 550.45 207.7 549.84 207.8C549.23 207.9 548.64 207.98 548.04 208.09C546.66 208.33 545.29 208.61 543.94 208.92L543.46 209.02L543 209.13C542.26 209.31 541.54 209.5 540.81 209.7L539.89 209.94C538.89 210.23 537.89 210.53 536.89 210.86L536.66 210.94C535.66 211.27 534.66 211.63 533.66 212L532.72 212.37C531.88 212.697 531.05 213.03 530.23 213.37L529.69 213.59L529.46 213.7C528.51 214.12 527.58 214.55 526.65 215.01L508.25 224.08C509.17 223.62 510.11 223.19 511.06 222.77L511.82 222.44C512.64 222.09 513.48 221.74 514.32 221.44L515.26 221.07C516.26 220.7 517.26 220.34 518.26 220L518.53 219.91C519.53 219.58 520.53 219.28 521.53 218.99L522.45 218.75C523.18 218.55 523.91 218.36 524.65 218.18L525.59 217.97C526.94 217.66 528.3 217.38 529.68 217.14C530.9 216.93 532.11 216.76 533.32 216.61L534.2 216.49C535.46 216.35 536.72 216.23 537.97 216.14H538.78C539.8 216.08 540.82 216.04 541.84 216.02H542.84C544.09 216.02 545.34 216.02 546.59 216.02H546.71C547.923 216.067 549.123 216.147 550.31 216.26L551.4 216.36C552.4 216.45 553.34 216.57 554.3 216.7L555.2 216.82C556.45 217 557.68 217.2 558.91 217.44L559.59 217.58C560.59 217.78 561.59 218 562.59 218.24L563.96 218.59C564.76 218.79 565.56 219.01 566.35 219.24L567.73 219.65L569.92 220.36L571.63 220.95C572.33 221.21 573.03 221.48 573.73 221.76L575.39 222.41C575.9 222.62 576.39 222.85 576.9 223.07C577.84 223.48 578.77 223.91 579.69 224.35L581.23 225.11C582.12 225.56 583 226.03 583.87 226.5C584.39 226.79 584.87 227.07 585.42 227.37C585.97 227.67 586.68 228.11 587.3 228.49L589.02 229.55C589.64 229.94 590.25 230.35 590.85 230.76C591.45 231.17 591.97 231.52 592.52 231.91C593.07 232.3 593.71 232.77 594.3 233.21C594.89 233.65 595.38 234.01 595.92 234.43C596.46 234.85 597.07 235.35 597.64 235.82C598.21 236.29 598.71 236.69 599.24 237.15L600.43 238.15L602.21 239.78C602.61 240.15 603 240.53 603.39 240.91C603.96 241.47 604.53 242.03 605.08 242.6C605.47 242.99 605.85 243.38 606.22 243.78C606.78 244.373 607.33 244.973 607.87 245.58L608.92 246.76C609.38 247.29 609.82 247.83 610.26 248.37C610.7 248.91 611.26 249.54 611.7 250.14C612.14 250.74 612.53 251.23 612.94 251.77C613.35 252.31 613.85 252.99 614.29 253.61C614.73 254.23 615.07 254.74 615.46 255.31C615.85 255.88 616.31 256.57 616.72 257.21C617.13 257.85 617.46 258.39 617.82 258.98C618.18 259.57 618.62 260.28 619 260.98C619.38 261.68 619.64 262.11 620 262.68C620.45 263.5 620.88 264.31 621.31 265.14C621.6 265.71 621.89 266.29 622.17 266.86C622.58 267.7 622.97 268.55 623.35 269.41C623.63 270.03 623.91 270.64 624.18 271.27C624.45 271.9 624.64 272.39 624.86 272.95C625.16 273.7 625.45 274.45 625.74 275.21C625.95 275.79 626.16 276.37 626.36 276.95C626.64 277.77 626.92 278.6 627.18 279.43C627.333 279.883 627.473 280.333 627.6 280.78C627.91 281.78 628.19 282.78 628.46 283.84C628.54 284.14 628.63 284.45 628.71 284.76C629.07 286.16 629.39 287.57 629.71 289C629.93 290.07 630.12 291.15 630.3 292.22C630.38 292.66 630.45 293.11 630.52 293.56C630.63 294.28 630.73 294.99 630.82 295.71C630.88 296.17 630.94 296.62 630.99 297.08C631.07 297.8 631.14 298.52 631.21 299.24C631.21 299.67 631.29 300.09 631.32 300.52C631.38 301.31 631.42 302.09 631.46 302.87L631.52 303.93C631.52 305.06 631.58 306.19 631.59 307.31C631.59 307.38 631.59 307.44 631.59 307.5C631.59 308.56 631.59 309.62 631.53 310.67L631.47 311.85C631.47 312.58 631.39 313.32 631.34 314.04L631.22 315.36C631.16 316.03 631.1 316.69 631.02 317.36L630.84 318.87C630.75 319.5 630.67 320.12 630.57 320.74C630.47 321.36 630.41 321.74 630.33 322.24C630.25 322.74 630.12 323.42 630.01 324.01C629.9 324.6 629.78 325.18 629.65 325.76C629.52 326.34 629.41 326.88 629.27 327.44C629.13 328 629 328.59 628.85 329.16C628.7 329.73 628.58 330.16 628.44 330.7C628.227 331.46 628.007 332.22 627.78 332.98C627.64 333.44 627.5 333.89 627.35 334.35C627.09 335.15 626.81 335.95 626.53 336.75C626.39 337.12 626.27 337.5 626.13 337.86C625.62 339.25 625.06 340.61 624.48 341.96C624.34 342.29 624.19 342.6 624.05 342.96C623.54 344.09 623.05 345.21 622.46 346.31C622.3 346.61 622.15 346.93 622 347.23C621.85 347.53 621.53 348.1 621.29 348.54C621.05 348.98 620.72 349.61 620.42 350.14L619.66 351.43L618.73 352.97C618.46 353.4 618.18 353.82 617.91 354.24C617.64 354.66 617.26 355.24 616.91 355.73L616.04 356.97C615.7 357.46 615.35 357.97 615.04 358.41C614.73 358.85 614.44 359.22 614.13 359.62C613.82 360.02 613.4 360.55 613.03 361.01C612.66 361.47 612.4 361.8 612.03 362.18C611.66 362.56 611.27 363.08 610.88 363.53C610.49 363.98 610.22 364.29 609.88 364.66C609.54 365.03 609.08 365.52 608.68 365.95L607.62 367.05C607.21 367.47 606.79 367.88 606.37 368.29L605.28 369.29C604.84 369.703 604.4 370.103 603.96 370.49C603.59 370.82 603.22 371.16 602.84 371.49C602.46 371.82 601.92 372.27 601.45 372.65L600.31 373.58C599.83 373.96 599.31 374.33 598.85 374.7L597.69 375.57C597.18 375.94 596.69 376.29 596.14 376.65L594.98 377.45C594.43 377.81 593.87 378.16 593.31 378.51C592.93 378.75 592.57 378.99 592.19 379.22L590.28 380.32L589.28 380.87C588.28 381.4 587.28 381.87 586.28 382.41L604.69 373.34C605.69 372.85 606.69 372.34 607.64 371.8L608.64 371.25C609.28 370.89 609.92 370.53 610.55 370.15C610.93 369.92 611.3 369.68 611.67 369.44L613.35 368.38C613.74 368.12 614.12 367.85 614.5 367.58C614.88 367.31 615.5 366.87 616.05 366.5C616.6 366.13 616.83 365.92 617.21 365.63C617.59 365.34 618.21 364.89 618.67 364.51C619.13 364.13 619.43 363.9 619.81 363.58C620.19 363.26 620.75 362.82 621.2 362.42C621.65 362.02 621.95 361.77 622.32 361.42C622.69 361.07 623.21 360.62 623.64 360.21C624.07 359.8 624.37 359.52 624.73 359.21C625.09 358.9 625.57 358.39 625.99 357.96C626.41 357.53 626.69 357.24 626.99 356.87C627.29 356.5 627.8 356.02 628.19 355.58C628.58 355.14 628.87 354.83 629.19 354.45L630.34 353.11L631.34 351.93L632.43 350.55C632.74 350.14 633.05 349.74 633.35 349.33C633.65 348.92 634.04 348.38 634.35 347.9C634.66 347.42 634.94 347.07 635.22 346.65C635.5 346.23 635.88 345.65 636.22 345.16C636.56 344.67 636.77 344.32 637.04 343.89C637.31 343.46 637.66 342.89 637.97 342.35C638.28 341.81 638.48 341.49 638.73 341.06C638.98 340.63 639.32 339.99 639.61 339.46L640.31 338.15L640.5 337.81L640.77 337.23C641.33 336.13 641.85 335.01 642.36 333.88C642.5 333.56 642.65 333.25 642.79 332.88C643.38 331.54 643.93 330.17 644.45 328.79C644.45 328.71 644.51 328.64 644.53 328.57C644.64 328.28 644.74 327.97 644.84 327.67C645.13 326.88 645.41 326.08 645.67 325.27C645.82 324.81 645.95 324.36 646.09 323.9C646.32 323.15 646.55 322.39 646.76 321.62C646.82 321.38 646.9 321.14 646.97 320.89C647.04 320.64 647.1 320.35 647.17 320.08L647.59 318.36C647.72 317.8 647.85 317.24 647.97 316.68C648.09 316.12 648.21 315.52 648.32 314.93C648.38 314.63 648.45 314.33 648.5 314.02C648.55 313.71 648.59 313.45 648.64 313.16C648.73 312.67 648.81 312.16 648.88 311.67C648.95 311.18 649.07 310.42 649.15 309.79C649.23 309.16 649.28 308.79 649.34 308.28C649.34 308.03 649.4 307.79 649.43 307.54C649.43 307.12 649.5 306.7 649.54 306.28C649.58 305.86 649.62 305.4 649.65 304.96C649.71 304.24 649.75 303.51 649.78 302.78C649.78 302.38 649.78 301.99 649.84 301.58C649.84 301.48 649.84 301.38 649.84 301.28C649.84 300.34 649.84 299.39 649.89 298.44V298.23C649.89 297.23 649.89 296.16 649.83 295.12C649.83 295.03 649.83 294.94 649.83 294.85C649.83 294.5 649.83 294.14 649.77 293.79C649.77 293.01 649.69 292.23 649.63 291.44C649.63 291.02 649.56 290.59 649.52 290.16C649.48 289.73 649.46 289.33 649.41 288.91C649.36 288.49 649.34 288.3 649.3 288C649.25 287.54 649.19 287.09 649.14 286.63C649.04 285.92 648.94 285.2 648.83 284.48L648.62 283.14C648.62 282.94 648.56 282.74 648.52 282.53C648.37 281.66 648.21 280.79 648.03 279.92C647.75 278.56 647.45 277.22 647.11 275.92C647.11 275.85 647.11 275.78 647.11 275.71C646.9 275.41 646.81 275.11 646.73 274.8Z" stroke="#11D467" stroke-width="3" stroke-linecap="round" stroke-linejoin="round"/>
<path d="M529.57 217.17C575.08 209.3 619.84 241.47 629.57 289.03C639.3 336.59 610.26 381.52 564.75 389.39C519.24 397.26 474.49 365.08 464.75 317.53C455.01 269.98 484.07 225 529.57 217.17Z" stroke="#11D467" stroke-width="3" stroke-linecap="round" stroke-linejoin="round"/>
<path d="M705.23 567.24C705.65 566.45 706.05 565.66 706.43 564.86C706.61 564.5 706.77 564.15 706.94 563.79C707.11 563.43 707.29 563.04 707.46 562.67C707.63 562.3 707.7 562.08 707.83 561.78L708.43 560.35C708.68 559.72 708.93 559.09 709.17 558.46C709.41 557.83 709.53 557.46 709.69 557.03L709.94 556.37C710.05 556.05 710.13 555.73 710.24 555.37C710.49 554.62 710.72 553.87 710.95 553.12C711.1 552.61 711.25 552.12 711.39 551.57C711.6 550.82 711.79 550.06 711.97 549.3C712.05 548.99 712.14 548.69 712.21 548.38C712.28 548.07 712.3 547.94 712.34 547.72C712.48 547.093 712.61 546.463 712.73 545.83C712.84 545.26 712.95 544.69 713.05 544.11C713.15 543.53 713.25 542.85 713.34 542.22C713.43 541.59 713.51 541.07 713.58 540.5C713.65 539.93 713.72 539.24 713.78 538.6C713.84 537.96 713.9 537.46 713.94 536.88C713.98 536.3 714.02 535.61 714.05 534.98C714.05 534.56 714.11 534.15 714.12 533.73C714.12 533.56 714.12 533.39 714.12 533.22C714.12 532.78 714.12 532.33 714.12 531.89C714.12 531.21 714.12 530.53 714.12 529.89V528.52C714.12 527.85 714.06 527.18 714.02 526.52C714.02 526.06 713.99 525.6 713.93 525.14C713.883 524.473 713.823 523.807 713.75 523.14C713.75 522.7 713.66 522.26 713.61 521.82C713.61 521.65 713.61 521.47 713.55 521.3C713.55 520.9 713.42 520.49 713.36 520.08C713.28 519.473 713.19 518.863 713.09 518.25C712.99 517.69 712.88 517.13 712.77 516.57C712.66 516.01 712.54 515.37 712.41 514.77C712.28 514.17 712.16 513.66 712.02 513.11C711.88 512.56 711.74 511.92 711.58 511.33C711.42 510.74 711.27 510.23 711.11 509.69C710.95 509.15 710.77 508.52 710.58 507.93C710.52 507.74 710.47 507.54 710.41 507.34C710.35 507.14 710.2 506.79 710.11 506.52C709.84 505.73 709.56 504.94 709.27 504.17C709.09 503.71 708.92 503.26 708.74 502.81C708.42 502.02 708.08 501.23 707.74 500.45C707.61 500.16 707.5 499.87 707.37 499.58L707.17 499.18C706.96 498.73 706.74 498.28 706.52 497.83C706.3 497.38 705.96 496.7 705.67 496.15C705.38 495.6 705.19 495.26 704.94 494.81C704.69 494.36 704.57 494.1 704.37 493.75C704.17 493.4 704.12 493.34 703.99 493.13L703.38 492.13C703.01 491.54 702.64 490.95 702.26 490.36C702.04 490.03 701.83 489.7 701.61 489.36L701.28 488.85C700.91 488.31 700.52 487.79 700.13 487.26L699.8 486.79C699.23 486.04 698.66 485.29 698.06 484.55L697.85 484.3L697.36 483.71C696.84 483.09 696.3 482.47 695.76 481.87L695.14 481.18L694.7 480.7C694.16 480.12 693.6 479.56 693.04 479L692.97 478.92C692.37 478.333 691.76 477.753 691.14 477.18L690.67 476.77L690.03 476.2C689.38 475.63 688.72 475.08 688.03 474.53L687.5 474.11L687.28 473.92C686.52 473.333 685.75 472.753 684.97 472.18L684.36 471.76C683.94 471.46 683.52 471.16 683.09 470.87C682.66 470.58 682.24 470.3 681.81 470.02C680.81 469.39 679.81 468.79 678.81 468.22L678.46 468.01L678.1 467.82C677.55 467.51 676.99 467.22 676.43 466.93L675.72 466.56C674.92 466.16 674.12 465.77 673.32 465.41L673.13 465.33C672.32 464.97 671.49 464.62 670.66 464.33L669.88 464.02C669.167 463.753 668.457 463.493 667.75 463.24L667.29 463.08L667.09 463.01C666.27 462.74 665.44 462.48 664.61 462.23L648.07 457.43C648.9 457.67 649.73 457.93 650.55 458.21L651.21 458.44C651.917 458.68 652.627 458.94 653.34 459.22L654.13 459.52C654.95 459.85 655.78 460.2 656.6 460.57L656.82 460.66C657.62 461.03 658.42 461.41 659.22 461.81L659.93 462.18L661.61 463.07L662.31 463.47C663.31 464.05 664.31 464.64 665.31 465.28C666.31 465.92 667.03 466.42 667.86 467.01L668.47 467.43C669.33 468.06 670.18 468.7 671.01 469.36L671.53 469.79C672.2 470.33 672.85 470.89 673.53 471.45L674.18 472.02C674.96 472.73 675.73 473.44 676.47 474.18C676.496 474.201 676.519 474.224 676.54 474.25C677.26 474.97 677.96 475.7 678.64 476.44C678.85 476.66 679.06 476.89 679.26 477.12C679.81 477.73 680.34 478.34 680.86 478.97L681.35 479.56C682.017 480.367 682.683 481.197 683.35 482.05L683.69 482.52C684.19 483.2 684.69 483.9 685.16 484.61C685.38 484.94 685.6 485.27 685.81 485.61C686.19 486.19 686.56 486.78 686.93 487.37L687.55 488.37C687.87 488.92 688.19 489.48 688.5 490.05C688.81 490.62 688.99 490.93 689.22 491.38C689.45 491.83 689.79 492.5 690.07 493.07C690.35 493.64 690.52 493.96 690.73 494.41C690.94 494.86 691.1 495.26 691.29 495.68C691.64 496.46 691.97 497.25 692.29 498.05C692.47 498.5 692.65 498.95 692.82 499.4C693.11 500.18 693.39 500.96 693.66 501.75C693.82 502.22 693.99 502.69 694.14 503.17C694.29 503.65 694.49 504.34 694.67 504.92C694.85 505.5 694.98 506.01 695.13 506.56C695.28 507.11 695.43 507.75 695.58 508.34C695.73 508.93 695.84 509.45 695.96 510C696.08 510.55 696.21 511.21 696.33 511.81C696.45 512.41 696.54 512.92 696.64 513.48C696.74 514.04 696.83 514.71 696.92 515.32C697.01 515.93 697.09 516.47 697.16 517.05C697.23 517.63 697.25 517.93 697.3 518.37C697.37 519.04 697.43 519.71 697.48 520.37C697.48 520.83 697.55 521.28 697.58 521.74C697.58 522.41 697.65 523.07 697.67 523.74C697.67 524.2 697.67 524.66 697.67 525.12C697.67 525.787 697.67 526.453 697.67 527.12C697.67 527.57 697.67 528.01 697.67 528.46C697.67 528.91 697.62 529.63 697.59 530.21C697.56 530.79 697.53 531.48 697.48 532.12C697.43 532.76 697.38 533.26 697.32 533.83C697.26 534.4 697.2 535.1 697.12 535.74C697.04 536.38 696.97 536.88 696.88 537.45C696.79 538.02 696.7 538.72 696.59 539.35C696.48 539.98 696.38 540.49 696.27 541.07C696.16 541.65 696.02 542.32 695.89 542.95C695.76 543.58 695.64 544.01 695.51 544.54C695.33 545.3 695.14 546.05 694.93 546.8C694.79 547.32 694.64 547.8 694.49 548.36C694.27 549.11 694.03 549.86 693.78 550.61C693.6 551.15 693.43 551.69 693.24 552.22C693.05 552.75 692.89 553.22 692.71 553.65C692.47 554.29 692.23 554.92 691.97 555.55C691.71 556.18 691.58 556.55 691.37 556.98C691.08 557.65 690.79 558.32 690.48 558.98C690.31 559.34 690.15 559.7 689.98 560.05C689.59 560.85 689.19 561.65 688.78 562.44C688.65 562.67 688.54 562.91 688.41 563.15C687.837 564.223 687.237 565.283 686.61 566.33C686.14 567.12 685.61 567.89 685.15 568.65L684.52 569.65L683.52 571.15C683.3 571.47 683.08 571.78 682.85 572.09C682.49 572.59 682.13 573.09 681.76 573.56L681.11 574.41C680.7 574.93 680.28 575.41 679.86 575.95L679.3 576.64C678.68 577.36 678.06 578.07 677.42 578.77L677.31 578.89C676.71 579.54 676.1 580.18 675.49 580.81L674.77 581.51C674.34 581.94 673.9 582.37 673.45 582.79L672.64 583.54L671.38 584.67L670.38 585.5L669.15 586.5L668.15 587.29C667.76 587.6 667.36 587.9 666.95 588.2C666.54 588.5 666.15 588.8 665.74 589.09L664.56 589.92L663.32 590.74C662.95 590.99 662.57 591.23 662.2 591.46C661.63 591.82 661.06 592.16 660.49 592.46L659.49 593.06C658.87 593.42 658.24 593.76 657.61 594.06L656.74 594.52C655.63 595.09 654.52 595.62 653.39 596.12L652.58 596.47C651.58 596.89 650.67 597.28 649.7 597.65L648.89 597.96L647.72 598.37C647.23 598.54 646.72 598.71 646.27 598.86L645.06 599.23C644.58 599.38 644.06 599.53 643.62 599.66L642.39 599.99L640.94 600.35L639.7 600.63L638.24 600.94L636.99 601.17L635.52 601.41L634.26 601.59C633.767 601.663 633.277 601.723 632.79 601.77L631.52 601.9L630.05 602.02L628.78 602.1C628.29 602.1 627.78 602.15 627.3 602.16H626.03H624.53H623.28L621.77 602.09L620.53 602.02L618.99 601.88L617.78 601.77C617.25 601.71 616.78 601.63 616.21 601.56L615.04 601.4L613.4 601.11L612.31 600.91C611.71 600.79 611.11 600.65 610.5 600.51L609.59 600.31C608.69 600.09 607.79 599.85 606.89 599.59L623.43 604.39C624.33 604.65 625.23 604.89 626.13 605.11L627.03 605.32C627.63 605.46 628.24 605.6 628.85 605.72L629.94 605.91C630.48 606.01 631.03 606.12 631.58 606.2L632.75 606.36C633.27 606.44 633.75 606.51 634.32 606.57C634.89 606.63 635.13 606.65 635.53 606.69L637.07 606.83L638.3 606.89C638.81 606.89 639.3 606.95 639.82 606.96C640.34 606.97 640.65 606.96 641.07 606.96H642.57H643.83L645.32 606.9L646.59 606.82L648.06 606.7L649.33 606.57L650.8 606.39L652.06 606.2C652.55 606.13 653.06 606.05 653.52 605.96L654.78 605.73C655.27 605.64 655.78 605.53 656.23 605.43L657.48 605.15L658.93 604.78L660.15 604.46L661.6 604.03L662.8 603.66L664.26 603.17L665.43 602.75L665.74 602.64L666.24 602.44C667.213 602.067 668.173 601.677 669.12 601.27L669.93 600.92C671.05 600.42 672.17 599.92 673.28 599.32L673.45 599.24L674.15 598.85C674.78 598.52 675.4 598.18 676.02 597.85L677.02 597.25L678.72 596.25L679.27 595.92L679.85 595.53L681.09 594.7L682.27 593.87L683.48 592.99L684.11 592.53L684.68 592.08L685.68 591.29L686.91 590.29C687.23 590.01 687.56 589.74 687.91 589.45C688.07 589.32 688.23 589.19 688.38 589.05C688.53 588.91 688.9 588.57 689.16 588.33L689.98 587.58C690.43 587.16 690.86 586.73 691.3 586.3C691.54 586.07 691.78 585.84 692.01 585.59C692.07 585.53 692.14 585.48 692.19 585.42C692.75 584.85 693.29 584.27 693.83 583.68L693.95 583.56C694.54 582.92 695.12 582.26 695.68 581.56L695.83 581.38C696.02 581.16 696.2 580.92 696.39 580.69C696.81 580.19 697.23 579.69 697.63 579.16L698.29 578.3C698.5 578.02 698.72 577.75 698.93 577.46L699.38 576.84L700.05 575.9C700.4 575.4 700.74 574.9 701.05 574.39L701.68 573.44C701.77 573.3 701.87 573.16 701.96 573.01C702.36 572.39 702.75 571.75 703.14 571.11C703.73 570.11 704.31 569.11 704.85 568.11L704.94 567.94L705.23 567.24Z" stroke="#11D467" stroke-width="3" stroke-linecap="round" stroke-linejoin="round"/>
<path d="M665.3 465.19C697.95 486.09 707.45 531.37 686.53 566.33C665.61 601.29 622.18 612.68 589.53 591.79C556.88 570.9 547.39 525.61 568.31 490.65C589.23 455.69 632.66 444.29 665.3 465.19Z" stroke="#11D467" stroke-width="3" stroke-linecap="round" stroke-linejoin="round"/>
<path d="M515.4 531.05C515.4 531.67 515.4 532.3 515.4 532.92C515.4 533.54 515.4 534.31 515.4 535C515.4 535.69 515.34 536.25 515.31 536.88C515.28 537.51 515.23 538.27 515.18 538.95C515.13 539.63 515.07 540.22 515.01 540.85C514.95 541.48 514.87 542.23 514.78 542.92C514.78 543.17 514.78 543.42 514.7 543.65C514.62 543.88 514.58 544.34 514.54 544.65C514.41 545.49 514.28 546.31 514.13 547.15C514.03 547.73 513.92 548.3 513.8 548.87C513.63 549.71 513.45 550.55 513.26 551.38C513.18 551.74 513.12 552.09 513.03 552.44C512.94 552.79 512.89 552.94 512.84 553.19C512.7 553.72 512.55 554.25 512.41 554.79C512.21 555.5 512.01 556.21 511.79 556.91C511.63 557.45 511.46 557.98 511.29 558.52C511.18 558.84 511.08 559.18 510.98 559.52C510.88 559.86 510.66 560.37 510.51 560.79C510.36 561.21 510.23 561.6 510.08 562C509.74 562.9 509.38 563.8 509.02 564.7C508.91 564.96 508.8 565.23 508.68 565.5L508.62 565.69C508.44 566.09 508.26 566.51 508.07 566.92C507.75 567.66 507.4 568.4 507.07 569.13C506.74 569.86 506.35 570.58 505.98 571.3C505.9 571.46 505.81 571.62 505.71 571.78C505.53 572.15 505.33 572.52 505.13 572.88C504.81 573.46 504.5 574.04 504.13 574.61C503.92 574.98 503.71 575.33 503.49 575.7L503.07 576.42C502.88 576.74 502.66 577.07 502.46 577.42C502.26 577.77 502.05 578.08 501.83 578.42C501.45 579.02 501.05 579.61 500.64 580.2C500.46 580.47 500.29 580.74 500.1 581.01C500.05 581.07 500.01 581.14 499.96 581.21C499.91 581.28 499.89 581.31 499.86 581.36C499.34 582.09 498.86 582.81 498.29 583.51C498.242 583.553 498.202 583.604 498.17 583.66C497.64 584.34 497.11 585.02 496.56 585.66L496.39 585.87L495.68 586.71C495.25 587.22 494.82 587.71 494.38 588.22C494.12 588.52 493.84 588.82 493.57 589.12L492.8 589.97L492.33 590.46C492 590.79 491.68 591.12 491.33 591.46L490.1 592.67L489.1 593.67C488.91 593.84 488.71 594.03 488.52 594.22L487.89 594.77C487.49 595.13 487.08 595.5 486.67 595.85L485.47 596.85C485.05 597.2 484.63 597.53 484.21 597.85C484.01 598.02 483.82 598.19 483.62 598.34L483.07 598.75L481.36 600L480.29 600.76C479.66 601.2 479.01 601.63 478.36 602.05L477.64 602.54L477.46 602.64C476.32 603.36 475.17 604.05 474 604.71L473.16 605.17C472.16 605.71 471.16 606.23 470.16 606.72L469.64 606.99L469.31 607.14L468.08 607.7C467.58 607.94 467.08 608.16 466.55 608.38L465.3 608.9L463.77 609.51L462.48 609.98C461.96 610.16 461.48 610.35 460.94 610.52L459.62 610.95L458.08 611.42L456.74 611.8L455.19 612.2L453.83 612.52C453.31 612.64 452.83 612.76 452.26 612.86C451.69 612.96 451.36 613.05 450.9 613.13C450.44 613.21 449.9 613.33 449.31 613.41L447.96 613.63L446.35 613.83C445.89 613.83 445.44 613.95 444.99 613.99C444.54 614.03 443.9 614.09 443.36 614.13C442.82 614.17 442.46 614.21 442.01 614.24L440.35 614.31H439.01H436.01C435.44 614.31 434.87 614.31 434.29 614.24L433.01 614.18C432.4 614.18 431.8 614.08 431.21 614.03L430 614C429.34 613.93 428.67 613.83 428 613.74C427.67 613.74 427.34 613.67 427 613.61C426 613.46 425 613.29 424 613.1L407.51 609.9C407.92 609.98 408.33 610.04 408.74 610.09L409.64 610.21C410.24 610.31 410.84 610.39 411.44 610.44C411.587 610.449 411.733 610.449 411.88 610.44C412.47 610.52 413.06 610.57 413.65 610.6C413.99 610.6 414.31 610.66 414.65 610.68C414.99 610.7 415.5 610.68 415.93 610.74C416.36 610.8 417.01 610.8 417.55 610.81H420.47C420.98 610.81 421.47 610.81 422 610.76L423.65 610.69C424.65 610.64 425.65 610.55 426.65 610.44C427.65 610.33 428.6 610.23 429.57 610.09L431.07 609.85C431.56 609.76 432.07 609.68 432.56 609.58L434.27 609.24L435.5 608.97L436.84 608.65L437.52 608.48H437.63C438.28 608.32 438.95 608.14 439.63 607.93C440.31 607.72 440.78 607.6 441.35 607.42C441.92 607.24 442.2 607.15 442.62 607C443.56 606.69 444.51 606.35 445.45 606L446.97 605.39L448.24 604.87C448.75 604.65 449.24 604.43 449.76 604.19C450.28 603.95 450.57 603.83 450.96 603.64C451.051 603.61 451.138 603.57 451.22 603.52C451.93 603.18 452.64 602.83 453.34 602.46C453.85 602.2 454.34 601.93 454.84 601.66H454.9L455.54 601.31L457.12 600.41L457.42 600.23C458 599.88 458.58 599.53 459.14 599.17C459.297 599.084 459.447 598.987 459.59 598.88L460.04 598.58C460.69 598.17 461.33 597.73 461.97 597.29C462.15 597.17 462.32 597.04 462.51 596.92C463.27 596.38 464.02 595.82 464.76 595.25L465.93 594.34L466.02 594.27L467.17 593.33L467.34 593.19L468.34 592.32L469.57 591.24L470.64 590.24C471.03 589.88 471.4 589.53 471.78 589.15L473.01 587.94L474.01 586.94C474.23 586.72 474.44 586.49 474.65 586.27C475.13 585.75 475.65 585.27 476.08 584.7C476.51 584.13 476.96 583.7 477.38 583.18C477.62 582.91 477.85 582.63 478.08 582.35L478.75 581.53C479.05 581.16 479.34 580.78 479.62 580.41L479.87 580.09L479.97 579.95C480.15 579.73 480.32 579.5 480.48 579.28L481.32 578.13C481.66 577.64 482.01 577.13 482.32 576.65L483.32 575.21C483.64 574.74 483.95 574.21 484.24 573.77C484.53 573.33 484.89 572.77 485.24 572.19L485.91 571.03C486.22 570.48 486.53 569.93 486.83 569.37C487.03 569.03 487.21 568.68 487.39 568.37C487.86 567.48 488.33 566.56 488.77 565.64C489.37 564.39 489.94 563.13 490.47 561.86C490.59 561.59 490.7 561.31 490.81 561.04C490.92 560.77 491.13 560.26 491.27 559.87C491.49 559.32 491.69 558.76 491.9 558.21C492.02 557.91 492.12 557.61 492.23 557.31C492.34 557.01 492.38 556.89 492.45 556.68C492.64 556.14 492.82 555.59 492.99 555.05C493.27 554.19 493.53 553.32 493.78 552.46C493.9 552.08 494.01 551.7 494.11 551.32C494.18 551.09 494.23 550.87 494.3 550.65L494.54 549.72C494.6 549.49 494.65 549.25 494.71 549.03C494.8 548.65 494.89 548.29 494.97 547.91V547.75C495.05 547.38 495.14 547.03 495.21 546.66C495.28 546.29 495.41 545.66 495.5 545.23C495.59 544.8 495.71 544.23 495.79 543.68C496 542.68 496.16 541.68 496.3 540.68C496.55 538.92 496.74 537.17 496.86 535.41C496.86 535.07 496.91 534.72 496.92 534.41C496.93 534.1 496.92 534.02 496.92 533.83V533.37V533.26C496.92 532.74 496.92 532.26 496.99 531.71C496.99 531.64 496.99 531.56 496.99 531.49C496.99 531.42 496.99 531.12 496.99 530.94C496.99 530.43 496.99 529.94 496.99 529.41V527.54C496.99 527.46 496.99 527.39 496.99 527.31C496.99 526.7 496.99 526.07 496.92 525.46C496.92 525.27 496.92 525.09 496.92 524.89C496.92 524.46 496.92 524.04 496.86 523.62V523.55C496.86 523.07 496.79 522.55 496.75 522.13C496.66 521.02 496.55 519.91 496.41 518.8C496.41 518.67 496.41 518.55 496.41 518.43C496.41 518.31 496.41 518.24 496.41 518.16C496.34 517.67 496.28 517.16 496.2 516.69L496.14 516.26C496.07 515.78 495.99 515.26 495.9 514.79V514.61L495.75 513.77C495.69 513.42 495.62 513.09 495.56 512.77C495.56 512.77 495.56 512.69 495.56 512.65C495.46 512.17 495.37 511.7 495.28 511.24C495.01 509.95 494.71 508.68 494.35 507.42C494.29 507.12 494.2 506.83 494.11 506.53C494.02 506.23 493.95 505.94 493.86 505.65C493.77 505.36 493.66 505 493.57 504.65C493.48 504.3 493.37 504 493.28 503.65C493.249 503.572 493.222 503.491 493.2 503.41C492.85 502.29 492.47 501.18 492.06 500.07C492.059 500.047 492.059 500.023 492.06 500V499.95C491.95 499.67 491.85 499.39 491.73 499.11C491.52 498.52 491.29 497.94 491.05 497.36C490.93 497.05 490.79 496.73 490.66 496.43C490.53 496.13 490.51 496.08 490.42 495.91C490.29 495.58 490.15 495.27 490.01 494.91C489.87 494.55 489.64 494.08 489.44 493.67L489.35 493.46C489.2 493.11 489.03 492.78 488.86 492.46C488.69 492.14 488.42 491.54 488.2 491.1C488.171 491.073 488.15 491.038 488.14 491C487.94 490.59 487.72 490.2 487.5 489.79C487.06 488.94 486.59 488.1 486.11 487.27C485.83 486.8 485.55 486.33 485.26 485.87L484.83 485.18C484.61 484.83 484.4 484.48 484.17 484.13C483.94 483.78 483.8 483.57 483.61 483.29C483.1 482.53 482.61 481.77 482.06 481.03C482.064 481.022 482.067 481.014 482.067 481.005C482.067 480.996 482.064 480.988 482.06 480.98L481.32 479.98C480.88 479.38 480.42 478.79 479.96 478.21C479.72 477.87 479.45 477.53 479.17 477.21C478.59 476.49 477.98 475.79 477.36 475.09C477.23 474.93 477.09 474.78 476.95 474.62C476.55 474.17 476.13 473.71 475.71 473.27L474.6 472.11L474 471.53C473.59 471.12 473.18 470.73 472.77 470.35L472.16 469.76L471.56 469.21L470.88 468.6C470.65 468.4 470.43 468.19 470.19 467.99C469.73 467.58 469.27 467.19 468.79 466.8L467.51 465.8C467 465.4 466.51 465.02 465.95 464.63L465 464C464.887 463.904 464.767 463.817 464.64 463.74L463.96 463.24C463.59 462.97 463.2 462.72 462.81 462.46L462.23 462.06C462.207 462.031 462.175 462.01 462.14 462C461.68 461.69 461.22 461.4 460.75 461.11L460.33 460.84C459.98 460.63 459.63 460.41 459.27 460.21C458.56 459.79 457.85 459.38 457.13 458.99L455.65 458.2C455.08 457.9 454.5 457.62 453.93 457.35C453.36 457.08 452.51 456.68 451.8 456.35L451.41 456.18C450.98 455.98 450.54 455.81 450.11 455.63C449.68 455.45 449.17 455.23 448.7 455.05C448.23 454.87 447.79 454.69 447.34 454.52C446.89 454.35 446.28 454.13 445.74 453.96L444.35 453.5L442.95 453.07C442.65 452.97 442.35 452.88 442.06 452.81L441.92 452.51L454.56 455C455.49 455.17 456.41 455.38 457.33 455.59L457.55 455.65L458.04 455.76C458.833 455.953 459.623 456.163 460.41 456.39L461.3 456.64C462.22 456.92 463.15 457.21 464.07 457.53L464.28 457.59C465.19 457.91 466.1 458.24 466.99 458.59C467.27 458.69 467.53 458.8 467.8 458.91C468.44 459.17 469.08 459.44 469.7 459.72L470.1 459.88C470.24 459.94 470.37 460.02 470.51 460.07C471.66 460.6 472.81 461.15 473.94 461.73L475.41 462.51C475.91 462.78 476.41 463.07 476.88 463.35L477.57 463.75C478.48 464.29 479.38 464.84 480.25 465.41C480.341 465.463 480.428 465.523 480.51 465.59L481.12 466C481.9 466.51 482.66 467.05 483.41 467.6L484.18 468.16L484.72 468.56C485.45 469.11 486.17 469.68 486.88 470.26L486.96 470.34C487.63 470.88 488.28 471.44 488.96 472.01C489.14 472.16 489.31 472.33 489.49 472.49L490.22 473.17C490.88 473.77 491.51 474.39 492.15 475.01C492.34 475.21 492.54 475.4 492.74 475.59C492.94 475.78 492.91 475.76 492.98 475.85C493.71 476.58 494.4 477.33 495.08 478.1C495.22 478.26 495.36 478.41 495.49 478.57C495.96 479.11 496.49 479.64 496.89 480.19C497.03 480.36 497.16 480.53 497.3 480.69C497.57 481.02 497.84 481.36 498.1 481.69C498.57 482.28 499.03 482.89 499.49 483.49L500.26 484.54C500.42 484.76 500.58 484.96 500.73 485.18C500.88 485.4 501.21 485.91 501.45 486.27C501.69 486.63 502.07 487.18 502.37 487.64C502.67 488.1 503.11 488.8 503.46 489.38C503.81 489.96 504.03 490.31 504.3 490.78L504.55 491.19C504.72 491.49 504.87 491.79 505.03 492.09C505.48 492.91 505.94 493.73 506.35 494.56C506.6 495.02 506.83 495.49 507.06 495.97C507.45 496.78 507.84 497.6 508.2 498.43C508.33 498.72 508.48 499 508.61 499.29C508.74 499.58 508.77 499.71 508.86 499.91C509.12 500.53 509.37 501.14 509.6 501.76C509.83 502.38 510.07 502.91 510.27 503.48C510.47 504.05 510.72 504.74 510.94 505.38C511.16 506.02 511.33 506.54 511.52 507.13C511.71 507.72 511.91 508.41 512.09 509.06C512.27 509.71 512.43 510.24 512.59 510.83C512.75 511.42 512.92 512.13 513.08 512.83C513.19 513.27 513.3 513.7 513.4 514.13C513.4 514.31 513.46 514.51 513.51 514.69C513.62 515.15 513.7 515.62 513.8 516.1C513.94 516.82 514.07 517.54 514.2 518.26C514.28 518.75 514.36 519.26 514.43 519.74C514.54 520.45 514.64 521.18 514.72 521.9C514.79 522.39 514.85 522.9 514.91 523.38C514.98 524.12 515.05 524.85 515.11 525.6C515.11 526.08 515.19 526.6 515.22 527.04C515.22 527.23 515.22 527.41 515.22 527.6C515.22 528.05 515.22 528.5 515.22 528.95C515.37 529.66 515.39 530.35 515.4 531.05Z" stroke="#11D467" stroke-width="3" stroke-linecap="round" stroke-linejoin="round"/>
<path d="M459.26 460.23C459.027 460.11 458.797 459.98 458.57 459.84C458.09 459.56 457.57 459.28 457.12 459.01C457.84 459.4 458.55 459.81 459.26 460.23Z" stroke="#11D467" stroke-width="3" stroke-linecap="round" stroke-linejoin="round"/>
<path d="M460.34 460.9C459.98 460.67 459.63 460.45 459.27 460.24C459.63 460.44 459.98 460.66 460.33 460.87L460.34 460.9Z" stroke="#11D467" stroke-width="3" stroke-linecap="round" stroke-linejoin="round"/>
<path d="M411.87 610.47L412.87 610.56L413.68 610.63C413.05 610.6 412.46 610.55 411.87 610.47Z" stroke="#11D467" stroke-width="3" stroke-linecap="round" stroke-linejoin="round"/>
<path d="M438.36 608.27L439.57 607.93C438.91 608.14 438.24 608.32 437.57 608.48L438.36 608.27Z" stroke="#11D467" stroke-width="3" stroke-linecap="round" stroke-linejoin="round"/>
<path d="M451.78 603.2C452.28 602.95 452.78 602.71 453.28 602.45C452.58 602.82 451.87 603.17 451.16 603.51L451.78 603.2Z" stroke="#11D467" stroke-width="3" stroke-linecap="round" stroke-linejoin="round"/>
<path d="M453.28 602.45C453.81 602.18 454.28 601.9 454.84 601.61H454.78C454.28 601.92 453.79 602.19 453.28 602.45Z" stroke="#11D467" stroke-width="3" stroke-linecap="round" stroke-linejoin="round"/>
<path d="M479.8 580.07L479.55 580.39L480.41 579.26C480.25 579.48 480.08 579.71 479.9 579.93L479.8 580.07Z" stroke="#11D467" stroke-width="3" stroke-linecap="round" stroke-linejoin="round"/>
<path d="M490.69 561C490.58 561.27 490.47 561.55 490.35 561.82L490.61 561.18C490.638 561.115 490.661 561.048 490.68 560.98C490.84 560.59 491 560.22 491.15 559.83C491 560.21 490.85 560.6 490.69 561Z" stroke="#11D467" stroke-width="3" stroke-linecap="round" stroke-linejoin="round"/>
<path d="M494.42 549.67L494.18 550.6C494.32 550.05 494.46 549.52 494.59 548.98C494.53 549.2 494.48 549.44 494.42 549.67Z" stroke="#11D467" stroke-width="3" stroke-linecap="round" stroke-linejoin="round"/>
<path d="M496.22 540.66C496.08 541.66 495.92 542.66 495.71 543.66C495.87 542.82 496.01 542 496.12 541.16C496.12 540.98 496.18 540.81 496.2 540.64L496.22 540.66Z" stroke="#11D467" stroke-width="3" stroke-linecap="round" stroke-linejoin="round"/>
<path d="M635.65 863.25C635.65 864.49 635.55 865.67 635.41 866.87C635.41 866.87 635.41 867.01 635.41 867.06C634.814 873.086 632.538 878.824 628.84 883.62C625.04 888.122 620.142 891.567 614.62 893.62C607.138 896.505 599.179 897.957 591.16 897.9L329.39 897.2C318.283 897.171 307.424 893.91 298.137 887.816C288.85 881.722 281.538 873.058 277.09 862.88L47.72 337.09C44.9295 330.725 43.9342 323.717 44.842 316.827C45.7498 309.936 48.5261 303.425 52.87 298L53.06 297.77L53.75 296.94C53.86 296.81 53.97 296.68 54.09 296.56C54.21 296.44 54.35 296.25 54.49 296.1L55.1 295.45L56.02 294.53C56.31 294.24 56.6 293.97 56.9 293.7C57.2 293.43 57.32 293.31 57.55 293.13C58.14 292.6 58.76 292.13 59.39 291.64C59.76 291.35 60.15 291.07 60.54 290.8C60.93 290.53 61.29 290.28 61.67 290.03L62.56 289.47C62.79 289.33 63.01 289.19 63.25 289.06C63.49 288.93 64.01 288.62 64.4 288.42L65.31 287.95C65.63 287.77 65.95 287.62 66.31 287.47L66.44 287.42L67.25 287.05C67.88 286.76 68.53 286.5 69.18 286.26C69.83 286.02 70.27 285.86 70.82 285.68C71.37 285.5 72.04 285.3 72.65 285.13L73.43 284.92L74.23 284.73C74.4933 284.656 74.7603 284.596 75.03 284.55C75.38 284.46 75.74 284.4 76.1 284.33C76.81 284.19 77.53 284.07 78.26 283.99C78.99 283.91 79.72 283.81 80.45 283.75L81.3 283.7C81.75 283.7 82.19 283.64 82.64 283.63H83.82L324.82 284.29C341.553 284.359 357.913 289.237 371.952 298.343C385.99 307.449 397.115 320.399 404 335.65L458 455.76L457.51 455.65L457.29 455.59C456.37 455.38 455.45 455.17 454.52 455L441.87 452.54L442.01 452.84C442.3 452.91 442.6 453 442.9 453.1L442.02 452.85L440.87 452.53C440.837 452.52 440.803 452.52 440.77 452.53C440.16 452.35 439.54 452.2 438.92 452.06C438.3 451.92 437.75 451.79 437.17 451.68C405.88 445.14 372.77 460.24 355.72 490.48C354.81 492.1 353.96 493.74 353.14 495.43C352.32 497.12 351.66 498.64 351 500.26C335.18 539.14 350.24 584.2 386.14 602.8C392.358 606.014 399.006 608.317 405.88 609.64L407.1 609.86L407.47 609.92L423.96 613.12C424.96 613.31 425.96 613.48 426.96 613.63C427.3 613.69 427.63 613.72 427.96 613.76C428.63 613.85 429.3 613.95 429.96 614.02L431.17 614.12C431.76 614.12 432.36 614.24 432.97 614.27L434.25 614.33C434.83 614.33 435.4 614.39 435.97 614.4H438.97H440.31L441.97 614.33C442.42 614.33 442.87 614.27 443.32 614.22C443.77 614.17 444.4 614.14 444.95 614.08C445.5 614.02 445.85 613.97 446.31 613.92L447.92 613.72L449.27 613.5C449.81 613.42 450.34 613.32 450.86 613.22C451.38 613.12 451.77 613.05 452.22 612.95C452.67 612.85 453.27 612.73 453.79 612.61L455.15 612.29L456.7 611.89L458.04 611.51L459.58 611.04L460.9 610.61C461.42 610.44 461.9 610.25 462.44 610.07L463.73 609.6L465.26 608.99L466.51 608.47C467.03 608.25 467.51 608.03 468.04 607.79L469.27 607.23L469.6 607.08L470.12 606.81C471.12 606.32 472.12 605.81 473.12 605.26L473.96 604.8C475.13 604.14 476.28 603.45 477.42 602.73L477.6 602.63L478.32 602.14C478.97 601.72 479.62 601.29 480.25 600.85L481.32 600.09L483.06 598.8L483.61 598.39C483.81 598.24 484 598.07 484.2 597.9C484.62 597.57 485.04 597.24 485.46 596.9L486.66 595.9C487.07 595.55 487.48 595.18 487.88 594.82L488.51 594.27C488.7 594.08 488.9 593.89 489.09 593.72L490.09 592.72L491.32 591.51C491.64 591.17 491.96 590.84 492.32 590.51L492.79 590.02L493.56 589.17C493.83 588.87 494.11 588.57 494.37 588.27C494.81 587.77 495.24 587.27 495.67 586.76L496.38 585.92L496.55 585.71C497.1 585.04 497.63 584.36 498.16 583.71C498.192 583.654 498.232 583.603 498.28 583.56C498.81 582.86 499.28 582.14 499.85 581.41C499.85 581.36 499.92 581.32 499.95 581.26C499.98 581.2 500.04 581.12 500.09 581.06C500.28 580.79 500.45 580.52 500.63 580.25C501.04 579.66 501.44 579.07 501.82 578.47C502.04 578.14 502.24 577.81 502.45 577.47C502.66 577.13 502.87 576.82 503.06 576.47L503.48 575.75C503.7 575.38 503.91 575.03 504.12 574.66C504.45 574.09 504.76 573.51 505.12 572.93C505.32 572.57 505.52 572.2 505.7 571.83C505.8 571.67 505.89 571.51 505.97 571.35C506.34 570.63 506.71 569.91 507.06 569.18C507.41 568.45 507.75 567.71 508.06 566.97L630.46 839.12C633.96 846.678 635.733 854.921 635.65 863.25Z" stroke="#11D467" stroke-width="3" stroke-linecap="round" stroke-linejoin="round"/>
<path d="M16.77 337.16V336.16" stroke="#11D467" stroke-width="3" stroke-linecap="round" stroke-linejoin="round"/>
<path d="M570.88 920.74L302.7 920C291.509 919.94 280.579 916.609 271.257 910.417C261.934 904.225 254.625 895.442 250.23 885.15L20 351.36C17.9238 346.57 16.8322 341.411 16.79 336.19C16.79 335.09 16.85 333.99 16.91 332.94C16.91 332.76 16.91 332.57 16.91 332.42C19.52 290.42 60.67 283.57 83.8 283.63C71.98 283.63 60.47 288.57 53.06 297.77C53.01 297.85 52.93 297.92 52.87 298C48.5266 303.427 45.7499 309.939 44.8405 316.831C43.931 323.722 44.9233 330.732 47.71 337.1L277.06 862.9C281.508 873.078 288.82 881.742 298.107 887.836C307.394 893.93 318.253 897.191 329.36 897.22L591.14 897.92C599.156 897.977 607.111 896.525 614.59 893.64C620.114 891.584 625.014 888.14 628.82 883.64C632.509 878.84 634.781 873.104 635.38 867.08C635.38 867.02 635.38 866.95 635.38 866.89C635.51 865.69 635.6 864.51 635.62 863.28C635.79 882.46 637.33 920.92 570.88 920.74Z" stroke="#11D467" stroke-width="3" stroke-linecap="round" stroke-linejoin="round"/>
<path d="M103.16 518.36H103.43H103.7H103.97C104.063 518.365 104.157 518.365 104.25 518.36H104.52H104.79H105.06H105.33H105.6H105.87C105.96 518.365 106.05 518.365 106.14 518.36C106.233 518.365 106.327 518.365 106.42 518.36H106.69H106.96H107.23C107.32 518.37 107.41 518.37 107.5 518.36H107.77H108.04C108.13 518.365 108.22 518.365 108.31 518.36C108.403 518.37 108.497 518.37 108.59 518.36H108.86H109.13H109.4H109.67H109.94H110.21C110.3 518.365 110.39 518.365 110.48 518.36H110.76C111.096 518.357 111.427 518.278 111.728 518.129C112.03 517.98 112.294 517.765 112.5 517.5C114.38 515.25 114.14 509.39 111.97 504.4L80.17 431.22C78.49 427.36 76.17 425.22 74.31 425.42H74.04H73.77H73.5H73.23C73.1368 425.415 73.0433 425.415 72.95 425.42H72.68C72.5903 425.41 72.4998 425.41 72.41 425.42H72.14H71.87H71.6C71.5103 425.41 71.4198 425.41 71.33 425.42H71.05H70.78H70.51H70.24H69.97H69.7H69.43H69.16C69.0668 425.415 68.9733 425.415 68.88 425.42H68.61H68.34H68.07H67.8H67.53H67.26H66.99C66.8968 425.415 66.8033 425.415 66.71 425.42H66.44H66.17C65.8344 425.42 65.5031 425.496 65.2015 425.643C64.8999 425.791 64.636 426.005 64.43 426.27C62.55 428.52 62.78 434.39 64.95 439.37L96.76 512.55C98.44 516.41 100.76 518.55 102.62 518.35H102.89L103.16 518.36Z" stroke="#11D467" stroke-width="3" stroke-linecap="round" stroke-linejoin="round"/>
<path d="M104.09 517.59C102.21 519.83 98.93 517.59 96.76 512.59L65 439.44C62.83 434.44 62.6 428.59 64.48 426.34C66.36 424.1 69.64 426.34 71.81 431.34L103.61 504.51C105.73 509.47 106 515.34 104.09 517.59Z" stroke="#11D467" stroke-width="3" stroke-linecap="round" stroke-linejoin="round"/>
<path d="M411.87 610.47L412.87 610.56L413.68 610.63C413.05 610.6 412.46 610.55 411.87 610.47Z" stroke="#11D467" stroke-width="3" stroke-linecap="round" stroke-linejoin="round"/>
<path d="M438.36 608.27L439.57 607.93C438.91 608.14 438.24 608.32 437.57 608.48L438.36 608.27Z" stroke="#11D467" stroke-width="3" stroke-linecap="round" stroke-linejoin="round"/>
<path d="M453.28 602.45C452.58 602.82 451.87 603.17 451.16 603.51L451.78 603.2C452.28 603 452.79 602.71 453.28 602.45Z" stroke="#11D467" stroke-width="3" stroke-linecap="round" stroke-linejoin="round"/>
<path d="M454.78 601.65C454.28 601.92 453.78 602.19 453.28 602.45C453.81 602.18 454.28 601.9 454.84 601.61L454.78 601.65Z" stroke="#11D467" stroke-width="3" stroke-linecap="round" stroke-linejoin="round"/>
<path d="M479.8 580.07L479.55 580.39L480.41 579.26C480.25 579.48 480.08 579.71 479.9 579.93L479.8 580.07Z" stroke="#11D467" stroke-width="3" stroke-linecap="round" stroke-linejoin="round"/>
<path d="M490.69 561C490.58 561.27 490.47 561.55 490.35 561.82L490.61 561.18C490.638 561.115 490.661 561.048 490.68 560.98L490.69 561Z" stroke="#11D467" stroke-width="3" stroke-linecap="round" stroke-linejoin="round"/>
<path d="M597.81 879.61L329.4 878.89C321.852 878.871 314.473 876.655 308.164 872.512C301.854 868.369 296.888 862.479 293.87 855.56L64.52 329.76C63.2062 326.736 62.6663 323.433 62.949 320.148C63.2317 316.863 64.3281 313.7 66.1392 310.946C67.9504 308.191 70.4192 305.93 73.3227 304.368C76.2262 302.807 79.4731 301.993 82.77 302L138.82 302.15C141.575 302.154 144.271 302.948 146.588 304.439C148.905 305.93 150.745 308.054 151.89 310.56C154.89 317.04 163.1 322.34 170.2 322.34H300.71C306.06 322.34 309.3 319.34 309.3 315.08C309.263 313.513 308.891 311.972 308.21 310.56C307.817 309.705 307.645 308.765 307.712 307.826C307.778 306.887 308.079 305.981 308.589 305.189C309.098 304.398 309.798 303.748 310.625 303.299C311.452 302.85 312.379 302.616 313.32 302.62L330.22 302.67C343.433 302.701 356.357 306.543 367.442 313.733C378.527 320.923 387.304 331.158 392.72 343.21L441.91 452.57L442.05 452.87L440.9 452.55C440.867 452.54 440.833 452.54 440.8 452.55C440.19 452.37 439.57 452.22 438.95 452.08C438.33 451.94 437.78 451.81 437.2 451.7C405.91 445.16 372.8 460.26 355.75 490.5C354.84 492.12 353.99 493.76 353.17 495.45C352.35 497.14 351.69 498.66 351.03 500.28C335.21 539.16 350.27 584.22 386.17 602.82C392.388 606.034 399.036 608.337 405.91 609.66L407.13 609.88L407.5 609.94L423.99 613.14C424.99 613.33 425.99 613.5 426.99 613.65C427.33 613.71 427.66 613.74 427.99 613.78C428.66 613.87 429.33 613.97 429.99 614.04L431.2 614.14C431.79 614.14 432.39 614.26 433 614.29L434.28 614.35C434.86 614.35 435.43 614.41 436 614.42H439H440.34L442 614.35C442.45 614.35 442.9 614.29 443.35 614.24C443.8 614.19 444.43 614.16 444.98 614.1C445.53 614.04 445.88 613.99 446.34 613.94L447.95 613.74L449.3 613.52C449.84 613.44 450.37 613.34 450.89 613.24C451.41 613.14 451.8 613.07 452.25 612.97C452.7 612.87 453.3 612.75 453.82 612.63L455.18 612.31L456.73 611.91L458.07 611.53L459.61 611.06L460.93 610.63C461.45 610.46 461.93 610.27 462.47 610.09L463.76 609.62L465.29 609.01L466.54 608.49C467.06 608.27 467.54 608.05 468.07 607.81L469.3 607.25L469.63 607.1L470.15 606.83C471.15 606.34 472.15 605.83 473.15 605.28L473.99 604.82C475.16 604.16 476.31 603.47 477.45 602.75L477.63 602.65L478.35 602.16C479 601.74 479.65 601.31 480.28 600.87L481.35 600.11L483.09 598.82L483.64 598.41C483.84 598.26 484.03 598.09 484.23 597.92C484.65 597.59 485.07 597.26 485.49 596.92L486.69 595.92C487.1 595.57 487.51 595.2 487.91 594.84L488.54 594.29C488.73 594.1 488.93 593.91 489.12 593.74L490.12 592.74L491.35 591.53C491.67 591.19 491.99 590.86 492.35 590.53L492.82 590.04L493.59 589.19C493.86 588.89 494.14 588.59 494.4 588.29C494.84 587.79 495.27 587.29 495.7 586.78L496.41 585.94L496.58 585.73C497.13 585.06 497.66 584.38 498.19 583.73C498.222 583.674 498.262 583.623 498.31 583.58C498.84 582.88 499.31 582.16 499.88 581.43L619.19 846.66C620.794 850.224 621.479 854.133 621.181 858.03C620.884 861.927 619.613 865.687 617.486 868.965C615.358 872.244 612.442 874.936 609.005 876.796C605.567 878.656 601.718 879.623 597.81 879.61Z" stroke="#11D467" stroke-width="3" stroke-linecap="round" stroke-linejoin="round"/>
<path d="M178.288 311.429C179.945 309.241 178.879 305.643 175.908 303.392C172.936 301.141 169.183 301.09 167.526 303.278C165.869 305.466 166.934 309.065 169.906 311.316C172.878 313.566 176.63 313.617 178.288 311.429Z" stroke="#11D467" stroke-width="3" stroke-linecap="round" stroke-linejoin="round"/>
<path d="M290.62 311.24H192.17C189.34 311.24 186.45 309.49 185.75 307.34C185.04 305.2 186.75 303.44 189.62 303.44H288.07C290.9 303.44 293.79 305.2 294.49 307.34C295.19 309.49 293.45 311.24 290.62 311.24Z" stroke="#11D467" stroke-width="3" stroke-linecap="round" stroke-linejoin="round"/>
<path d="M425.9 673H342.63L295.77 564.81L337.55 469.12L351 500.23C335.18 539.11 350.24 584.17 386.14 602.77C389.78 604.656 393.574 606.228 397.48 607.47L425.9 673Z" stroke="#11D467" stroke-width="3" stroke-linecap="round" stroke-linejoin="round"/>
<path d="M254.29 469.12L295.77 564.81L337.55 469.12H254.29Z" stroke="#11D467" stroke-width="3" stroke-linecap="round" stroke-linejoin="round"/>
<path d="M407.52 609.92L438.39 681.17H337.23L286.59 564.31L241.79 460.93H342.95L355.75 490.45" stroke="#11D467" stroke-width="3" stroke-linecap="round" stroke-linejoin="round"/>
<path d="M432.43 776.39C432.188 777.256 431.743 778.052 431.13 778.71C430.68 779.182 430.116 779.529 429.492 779.718C428.868 779.908 428.206 779.932 427.57 779.79C426.64 779.655 425.766 779.259 425.05 778.65C422.19 776.21 419.14 774.02 416.05 771.83C413.4 769.93 410.71 768.08 408.05 766.2L407.65 765.96C407.434 765.969 407.221 765.902 407.05 765.77C403.94 763.61 400.8 761.49 397.66 759.36C396.77 758.75 395.88 758.16 394.98 757.57C394.601 757.352 394.279 757.047 394.04 756.68C393.937 756.496 393.902 756.282 393.943 756.075C393.983 755.868 394.095 755.682 394.26 755.55C394.621 755.192 395.005 754.857 395.41 754.55C396.59 753.55 397.75 752.44 398.94 751.39C400.43 750.07 401.94 748.72 403.38 747.39C404.66 746.237 405.933 745.08 407.2 743.92L411.39 740.09C412.22 739.33 413.04 738.56 413.86 737.79L419.69 732.3C422.123 730 424.507 727.667 426.84 725.3C427.756 724.384 428.611 723.408 429.4 722.38C429.466 722.301 429.526 722.217 429.58 722.13C429.66 721.99 429.82 721.84 429.67 721.68C429.52 721.52 429.35 721.68 429.2 721.68C428.02 722.33 426.86 723.02 425.71 723.68C419.13 727.68 412.63 731.68 406.12 735.77C400.507 739.27 394.907 742.783 389.32 746.31L383.21 750.17C382.966 750.344 382.679 750.448 382.38 750.47C382.225 750.452 382.08 750.39 381.96 750.29C380.77 749.92 379.59 749.55 378.4 749.16L362.61 744C362.015 743.826 361.486 743.477 361.09 743C360.75 742.574 360.586 742.033 360.633 741.49C360.679 740.947 360.933 740.442 361.34 740.08C361.951 739.537 362.647 739.098 363.4 738.78C366.27 737.46 369.19 736.27 372.13 735.12C375.363 733.853 378.597 732.607 381.83 731.38C385.07 730.15 388.31 728.94 391.56 727.72C394.12 726.72 396.7 725.81 399.27 724.86C399.593 724.573 400.008 724.413 400.44 724.41H400.51C400.57 724.32 400.63 724.21 400.76 724.21C401.17 724.21 401.49 723.86 401.91 723.89H401.99C402.09 723.62 402.35 723.74 402.54 723.67H402.61C402.67 723.59 402.71 723.5 402.81 723.48C403.23 723.48 403.57 723.11 404.01 723.14H404.09C404.09 723.04 404.23 722.93 404.3 722.93C404.73 722.93 405.06 722.57 405.49 722.62H405.57C407.47 721.92 409.38 721.21 411.29 720.52L426.49 714.97L436.49 711.35C438.24 710.71 439.99 710.07 441.75 709.46C442.58 709.16 443.457 709.011 444.34 709.02C444.609 708.991 444.882 709.016 445.142 709.093C445.402 709.17 445.644 709.297 445.854 709.468C446.064 709.64 446.238 709.851 446.366 710.09C446.494 710.328 446.574 710.59 446.6 710.86C446.75 711.821 446.75 712.799 446.6 713.76C446.238 716.867 445.704 719.952 445 723C444.26 726.6 443.46 730.2 442.64 733.78C442.64 733.92 442.59 734.06 442.56 734.2C442 736.63 441.44 739.05 440.87 741.48C438.19 752.99 435.39 764.48 432.57 775.95C432.5 776.06 432.46 776.23 432.43 776.39Z" stroke="#11D467" stroke-width="3" stroke-linecap="round" stroke-linejoin="round"/>
<path d="M382 750.27C382.495 750.27 382.977 750.116 383.38 749.83C392.26 744.237 401.15 738.653 410.05 733.08C415.42 729.72 420.81 726.37 426.25 723.08C427.17 722.53 428.11 722 429.04 721.47C429.244 721.326 429.482 721.236 429.73 721.21C430.07 721.21 430.2 721.36 430.05 721.66C429.926 721.901 429.782 722.132 429.62 722.35C428.767 723.444 427.845 724.483 426.86 725.46C425.37 727 423.86 728.52 422.32 730C419.32 732.85 416.39 735.68 413.32 738.45C411.52 740.1 409.75 741.77 407.95 743.45C405.85 745.37 403.737 747.283 401.61 749.19L395.87 754.37L394.56 755.53C394.39 755.653 394.262 755.826 394.196 756.025C394.129 756.225 394.127 756.44 394.19 756.64C394.19 759.19 393.76 761.72 393.56 764.26C393.37 766.61 393.12 768.95 392.91 771.26L392.55 775.01C392.458 775.717 392.512 776.435 392.71 777.12C392.71 777.26 392.88 777.47 392.55 777.45C391.82 776.822 391.265 776.016 390.94 775.11C389.39 770.86 387.86 766.61 386.32 762.35C385.44 759.92 384.57 757.48 383.69 755.05C383.14 753.48 382.56 751.88 382 750.27Z" stroke="#11D467" stroke-width="3" stroke-linecap="round" stroke-linejoin="round"/>
<path d="M392.57 777.49C392.07 775.79 392.48 774.1 392.62 772.41C392.84 769.73 393.11 767.05 393.36 764.41C393.59 761.96 393.83 759.51 394.06 757.07C394.063 756.926 394.116 756.788 394.21 756.68C394.368 756.898 394.569 757.082 394.8 757.22C398.98 760.02 403.137 762.843 407.27 765.69L407.67 766C405.61 767.79 403.54 769.58 401.54 771.44C400.38 772.52 399.24 773.613 398.12 774.72C397.293 775.598 396.393 776.405 395.43 777.13C395.025 777.43 394.581 777.672 394.11 777.85C393.848 777.96 393.558 777.984 393.282 777.919C393.005 777.854 392.756 777.704 392.57 777.49V777.49Z" stroke="#11D467" stroke-width="3" stroke-linecap="round" stroke-linejoin="round"/>
<path d="M396.17 281.47L469.01 156.97" stroke="#11D467" stroke-width="3" stroke-linecap="round" stroke-linejoin="round"/>
<path d="M477.17 143.01L519.97 69.87" stroke="#11D467" stroke-width="3" stroke-linecap="round" stroke-linejoin="round"/>
<path d="M338.93 254.38L348.8 141.66" stroke="#11D467" stroke-width="3" stroke-linecap="round" stroke-linejoin="round"/>
<path d="M349.91 129.03L355.71 62.81" stroke="#11D467" stroke-width="3" stroke-linecap="round" stroke-linejoin="round"/>
<path d="M228.81 65.77L258.8 174.87" stroke="#11D467" stroke-width="3" stroke-linecap="round" stroke-linejoin="round"/>
<path d="M262.16 187.1L279.77 251.19" stroke="#11D467" stroke-width="3" stroke-linecap="round" stroke-linejoin="round"/>
<path d="M643.75 770.23L778.47 854.96" stroke="#11D467" stroke-width="3" stroke-linecap="round" stroke-linejoin="round"/>
<path d="M793.57 864.46L872.71 914.24" stroke="#11D467" stroke-width="3" stroke-linecap="round" stroke-linejoin="round"/>
<path d="M619.23 710.42L773.82 733.9" stroke="#11D467" stroke-width="3" stroke-linecap="round" stroke-linejoin="round"/>
<path d="M791.15 736.54L881.98 750.33" stroke="#11D467" stroke-width="3" stroke-linecap="round" stroke-linejoin="round"/>
<path d="M876.89 611.71L734.03 639.47" stroke="#11D467" stroke-width="3" stroke-linecap="round" stroke-linejoin="round"/>
<path d="M718.02 642.58L634.1 658.88" stroke="#11D467" stroke-width="3" stroke-linecap="round" stroke-linejoin="round"/>
<path d="M716.79 436.35L875.11 452.58" stroke="#11D467" stroke-width="3" stroke-linecap="round" stroke-linejoin="round"/>
<path d="M892.86 454.4L985.87 463.93" stroke="#11D467" stroke-width="3" stroke-linecap="round" stroke-linejoin="round"/>
<path d="M652.75 399.01L810.89 348.35" stroke="#11D467" stroke-width="3" stroke-linecap="round" stroke-linejoin="round"/>
<path d="M828.61 342.67L921.51 312.91" stroke="#11D467" stroke-width="3" stroke-linecap="round" stroke-linejoin="round"/>
<path d="M860.54 198.02L764.69 269.62" stroke="#11D467" stroke-width="3" stroke-linecap="round" stroke-linejoin="round"/>
<path d="M753.95 277.64L697.63 319.7" stroke="#11D467" stroke-width="3" stroke-linecap="round" stroke-linejoin="round"/>
</svg>
