<svg id="Layer_4" data-name="Layer 4" xmlns="http://www.w3.org/2000/svg" viewBox="0 0 1000 1000"><defs><style>.cls-1{fill:none;stroke:#11d467;stroke-linecap:round;stroke-linejoin:round;stroke-width:3px;}.cls-2{isolation:isolate;}</style></defs><title>Artboard 1</title><path class="cls-1" d="M635.65,863.26c0-.73,0-1.42,0-2.1"/><g class="cls-2"><path class="cls-1" d="M442.94,453.1l-.88-.25h0l-1.15-.32a.17.17,0,0,0-.1,0c-.61-.18-1.23-.33-1.85-.47s-1.17-.27-1.75-.38c-.33-.08-.68-.16-1-.22l5.72,1.11.14.3C442.34,452.91,442.64,453,442.94,453.1Z"/><path class="cls-1" d="M459.26,460.23q-.35-.18-.69-.39c-.48-.28-1-.56-1.45-.83C457.84,459.4,458.55,459.81,459.26,460.23Z"/><path class="cls-1" d="M460.75,461.14c-.13-.08-.27-.17-.41-.24-.36-.23-.71-.45-1.07-.66.36.2.71.42,1.06.63Z"/><path class="cls-1" d="M487.35,489.8c-.44-.85-.91-1.69-1.39-2.52.25.43.48.87.73,1.31S487.13,489.4,487.35,489.8Z"/><path class="cls-1" d="M493.09,503.39c-.35-1.12-.73-2.23-1.14-3.34q.33.9.63,1.83C492.76,502.38,492.93,502.89,493.09,503.39Z"/><path class="cls-1" d="M495.17,511.15c-.14-.63-.29-1.24-.44-1.86s-.32-1.3-.49-2C494.6,508.59,494.9,509.86,495.17,511.15Z"/><path class="cls-1" d="M496.91,533.21v.11l0,.46Z"/><path class="cls-1" d="M497,527.49v.43c0-.22,0-.43,0-.66C497,527.34,497,527.41,497,527.49Z"/><path class="cls-1" d="M407.5,609.89l0,0-.88-.17-.73-.14,1.22.22Z"/><path class="cls-1" d="M412.83,610.56l.81.07c-.59,0-1.18-.08-1.77-.16Z"/><path class="cls-1" d="M438.36,608.27l1.21-.34c-.66.21-1.33.39-2,.55Z"/><path class="cls-1" d="M451.78,603.2c.5-.25,1-.49,1.5-.75-.7.37-1.41.72-2.12,1.06Z"/><path class="cls-1" d="M453.28,602.45c.53-.27,1-.55,1.56-.84l-.06,0C454.28,601.92,453.79,602.19,453.28,602.45Z"/><path class="cls-1" d="M490.68,561c.16-.39.32-.76.47-1.15-.14.39-.3.78-.46,1.17s-.22.55-.34.82l.26-.64A1.59,1.59,0,0,0,490.68,561Z"/><path class="cls-1" d="M494.18,550.6c.14-.55.28-1.08.41-1.62-.06.22-.11.46-.17.69Z"/><path class="cls-1" d="M496.78,535.39c-.12,1.76-.31,3.51-.56,5.27-.14,1-.3,2-.51,3,.16-.84.3-1.66.41-2.5,0-.18.06-.35.08-.52.06-.42.12-.83.17-1.25.09-.69.16-1.37.23-2.07S496.73,536,496.78,535.39Z"/><path class="cls-1" d="M407.13,609.83l-.49-.08-.73-.14Z"/><path class="cls-1" d="M413.64,610.63c-.59,0-1.18-.08-1.77-.16l1,.09Z"/><path class="cls-1" d="M426.61,610.47c-.54.06-1.08.1-1.63.14l-1.35.11C424.62,610.67,425.62,610.58,426.61,610.47Z"/><path class="cls-1" d="M429.53,610.12l-1.56.19-1.36.16C427.58,610.38,428.56,610.26,429.53,610.12Z"/><path class="cls-1" d="M439.57,607.93c-.66.21-1.33.39-2,.55l.77-.21Z"/><path class="cls-1" d="M440.8,452.5c-.61-.18-1.23-.33-1.85-.47l.74.19C440.06,452.3,440.43,452.4,440.8,452.5Z"/><path class="cls-1" d="M442.94,453.1l-.88-.25h0l-1.15-.32c.38.08.76.19,1.15.31S442.64,453,442.94,453.1Z"/><path class="cls-1" d="M445.39,606l-1.29.47-1.54.54C443.5,606.69,444.45,606.35,445.39,606Z"/><path class="cls-1" d="M453.28,602.45c-.7.37-1.41.72-2.12,1.06l.62-.31C452.28,603,452.79,602.71,453.28,602.45Z"/><path class="cls-1" d="M454.84,601.61l-.06,0c-.5.27-1,.54-1.5.8C453.81,602.18,454.32,601.9,454.84,601.61Z"/><path class="cls-1" d="M459.26,460.23q-.35-.18-.69-.39c-.48-.28-1-.56-1.45-.83C457.84,459.4,458.55,459.81,459.26,460.23Z"/><path class="cls-1" d="M460.75,461.14c-.13-.08-.27-.17-.41-.24-.36-.23-.71-.45-1.07-.66.36.2.71.42,1.06.63Z"/><path class="cls-1" d="M464.7,595.2,463,596.48l-.52.39C463.21,596.33,464,595.77,464.7,595.2Z"/><path class="cls-1" d="M484.68,485.19c-.4-.63-.81-1.27-1.22-1.89.19.28.38.55.56.84S484.46,484.84,484.68,485.19Z"/><path class="cls-1" d="M491.15,559.82c-.14.39-.3.78-.46,1.17s-.22.55-.34.82l.26-.64a1.59,1.59,0,0,0,.07-.2C490.84,560.58,491,560.21,491.15,559.82Z"/><path class="cls-1" d="M493.09,503.39c-.35-1.12-.73-2.23-1.14-3.34q.33.9.63,1.83C492.76,502.38,492.93,502.89,493.09,503.39Z"/><path class="cls-1" d="M487.35,489.8c-.44-.85-.91-1.69-1.39-2.52.25.43.48.87.73,1.31S487.13,489.4,487.35,489.8Z"/><path class="cls-1" d="M491.58,499.09c-.21-.59-.44-1.17-.68-1.75.11.3.23.61.36.92S491.48,498.81,491.58,499.09Z"/><path class="cls-1" d="M495.17,511.15c-.14-.63-.29-1.24-.44-1.86s-.32-1.3-.49-2C494.6,508.59,494.9,509.86,495.17,511.15Z"/><path class="cls-1" d="M492.33,556.63c-.07.21-.14.42-.22.63s-.21.6-.33.9C492,557.65,492.15,557.14,492.33,556.63Z"/><path class="cls-1" d="M494.59,549c-.06.22-.11.46-.17.69l-.24.93C494.32,550.05,494.46,549.52,494.59,549Z"/><path class="cls-1" d="M494.18,550.6c-.07.22-.12.44-.19.67s-.21.76-.33,1.14C493.84,551.81,494,551.2,494.18,550.6Z"/><path class="cls-1" d="M496.78,535.39c-.12,1.76-.31,3.51-.56,5.27-.14,1-.3,2-.51,3,.16-.84.3-1.66.41-2.5,0-.18.06-.35.08-.52.06-.42.12-.83.17-1.25.09-.69.16-1.37.23-2.07S496.73,536,496.78,535.39Z"/><path class="cls-1" d="M497,527.49v.43c0-.22,0-.43,0-.66C497,527.34,497,527.41,497,527.49Z"/><path class="cls-1" d="M497,528.71v.65c0,.5,0,1,0,1.53C497,530.17,497,529.43,497,528.71Z"/><path class="cls-1" d="M496.91,533.21v.11l0,.46Z"/></g><g class="cls-2"><path class="cls-1" d="M646.73,274.8c-.27-1-.56-2.05-.86-3.06l-.42-1.35c-.15-.47-.29-.94-.44-1.41s-.26-.71-.39-1.07c-.2-.58-.41-1.16-.62-1.74-.28-.76-.57-1.51-.87-2.26l-.69-1.68-.32-.78c-.16-.36-.34-.71-.5-1.08-.39-.85-.78-1.7-1.19-2.55l-.86-1.72c-.42-.82-.86-1.64-1.31-2.46l-.53-1c-.14-.24-.28-.46-.42-.69-.38-.67-.77-1.32-1.17-2s-.73-1.18-1.1-1.77-.84-1.27-1.27-1.9-.77-1.14-1.17-1.7-.89-1.23-1.35-1.83-.82-1.1-1.24-1.64-1-1.18-1.43-1.77c-.32-.38-.62-.77-.94-1.15l-.4-.45c-.35-.41-.71-.8-1.06-1.19-.54-.61-1.09-1.21-1.64-1.8l-1.14-1.18c-.56-.57-1.12-1.13-1.69-1.69l-1.18-1.13c-.59-.55-1.19-1.09-1.79-1.62-.39-.35-.78-.71-1.18-1l-.47-.41c-.37-.32-.76-.61-1.14-.92-.57-.47-1.14-.94-1.72-1.39s-1.08-.82-1.62-1.22-1.17-.88-1.77-1.3-1.11-.77-1.68-1.15-1.21-.81-1.82-1.21-1.15-.71-1.73-1.06-1.24-.76-1.87-1.12l-.63-.38-.93-.49c-.87-.47-1.75-.94-2.63-1.38l-1.55-.77c-.92-.44-1.85-.86-2.78-1.27-.35-.15-.68-.32-1-.47l-.5-.2-1.66-.65c-.69-.28-1.39-.55-2.1-.8s-1.14-.4-1.71-.59-.9-.33-1.36-.47l-.83-.25-1.37-.41c-.8-.23-1.6-.45-2.4-.65l-1.37-.35-.69-.17c-.76-.18-1.53-.33-2.29-.49l-.67-.14c-1.1-.21-2.21-.4-3.32-.57l-.39-.05c-.3-.05-.61-.08-.91-.12-1-.13-1.92-.25-2.89-.34l-1.09-.1-.79-.08c-.93-.07-1.87-.12-2.81-.16h-.13c-1,0-2-.06-3-.06l-.74,0h-1c-1,0-2,.06-3.07.12l-.8.05h-.35c-1.14.09-2.28.2-3.43.33l-.87.12c-.61.07-1.23.14-1.84.24s-1.2.18-1.8.29c-1.38.24-2.75.52-4.1.83l-.48.1-.46.11c-.74.18-1.46.37-2.19.57l-.92.24c-1,.29-2,.59-3,.92l0,0-.23.08c-1,.33-2,.69-3,1.06l-.94.37q-1.26.49-2.49,1l-.54.22-.23.11c-.95.42-1.88.85-2.81,1.31l-18.4,9.07c.92-.46,1.86-.89,2.81-1.31l.76-.33c.82-.35,1.66-.7,2.5-1l.94-.37c1-.37,2-.73,3-1.07l.27-.09c1-.33,2-.63,3-.92l.92-.24c.73-.2,1.46-.39,2.2-.57l.94-.21c1.35-.31,2.71-.59,4.09-.83,1.22-.21,2.43-.38,3.64-.53l.88-.12c1.26-.14,2.52-.26,3.77-.35l.81,0q1.53-.09,3.06-.12l1,0c1.25,0,2.5,0,3.75,0h.12q1.82.07,3.6.24l1.09.1c1,.09,1.94.21,2.9.34l.9.12c1.25.18,2.48.38,3.71.62l.68.14c1,.2,2,.42,3,.66l1.37.35c.8.2,1.6.42,2.39.65l1.38.41,2.19.71,1.71.59q1.05.39,2.1.81l1.66.65c.51.21,1,.44,1.51.66.94.41,1.87.84,2.79,1.28l1.54.76c.89.45,1.77.92,2.64,1.39.52.29,1,.57,1.55.87s1.26.74,1.88,1.12l1.72,1.06c.62.39,1.23.8,1.83,1.21s1.12.76,1.67,1.15,1.19.86,1.78,1.3,1.08.8,1.62,1.22,1.15.92,1.72,1.39,1.07.87,1.6,1.33l1.19,1,1.78,1.63c.4.37.79.75,1.18,1.13.57.56,1.14,1.12,1.69,1.69.39.39.77.78,1.14,1.18q.84.89,1.65,1.8l1.05,1.18c.46.53.9,1.07,1.34,1.61s1,1.17,1.44,1.77.83,1.09,1.24,1.63.91,1.22,1.35,1.84.78,1.13,1.17,1.7.85,1.26,1.26,1.9.74,1.18,1.1,1.77.8,1.3,1.18,2,.64,1.13,1,1.7c.45.82.88,1.63,1.31,2.46.29.57.58,1.15.86,1.72.41.84.8,1.69,1.18,2.55.28.62.56,1.23.83,1.86s.46,1.12.68,1.68c.3.75.59,1.5.88,2.26.21.58.42,1.16.62,1.74.28.82.56,1.65.82,2.48q.23.68.42,1.35c.31,1,.59,2,.86,3.06.08.3.17.61.25.92.36,1.4.68,2.81,1,4.24.22,1.07.41,2.15.59,3.22.08.44.15.89.22,1.34.11.72.21,1.43.3,2.15.06.46.12.91.17,1.37.08.72.15,1.44.22,2.16,0,.43.08.85.11,1.28.06.79.1,1.57.14,2.35l.06,1.06c0,1.13.06,2.26.07,3.38,0,.07,0,.13,0,.19,0,1.06,0,2.12-.06,3.17l-.06,1.18c0,.73-.08,1.47-.13,2.19l-.12,1.32c-.06.67-.12,1.33-.2,2l-.18,1.51c-.09.63-.17,1.25-.27,1.87s-.16,1-.24,1.5-.21,1.18-.32,1.77-.23,1.17-.36,1.75-.24,1.12-.38,1.68-.27,1.15-.42,1.72-.27,1-.41,1.54q-.32,1.14-.66,2.28c-.14.46-.28.91-.43,1.37-.26.8-.54,1.6-.82,2.4-.14.37-.26.75-.4,1.11-.51,1.39-1.07,2.75-1.65,4.1-.14.33-.29.64-.43,1-.51,1.13-1,2.25-1.59,3.35-.16.3-.31.62-.46.92s-.47.87-.71,1.31-.57,1.07-.87,1.6l-.76,1.29-.93,1.54c-.27.43-.55.85-.82,1.27s-.65,1-1,1.49l-.87,1.24c-.34.49-.69,1-1,1.44s-.6.81-.91,1.21-.73.93-1.1,1.39-.63.79-1,1.17-.76.9-1.15,1.35-.66.76-1,1.13-.8.86-1.2,1.29l-1.06,1.1c-.41.42-.83.83-1.25,1.24l-1.09,1q-.66.62-1.32,1.2c-.37.33-.74.67-1.12,1s-.92.78-1.39,1.16l-1.14.93c-.48.38-1,.75-1.46,1.12l-1.16.87c-.51.37-1,.72-1.55,1.08l-1.16.8c-.55.36-1.11.71-1.67,1.06-.38.24-.74.48-1.12.71l-1.91,1.1-1,.55c-1,.53-2,1-3,1.54l18.41-9.07c1-.49,2-1,2.95-1.54l1-.55c.64-.36,1.28-.72,1.91-1.1.38-.23.75-.47,1.12-.71l1.68-1.06c.39-.26.77-.53,1.15-.8s1-.71,1.55-1.08.78-.58,1.16-.87,1-.74,1.46-1.12.76-.61,1.14-.93.94-.76,1.39-1.16.75-.65,1.12-1,.89-.8,1.32-1.21.73-.69,1.09-1,.84-.82,1.26-1.25.7-.72,1-1.09.81-.85,1.2-1.29.68-.75,1-1.13l1.15-1.34,1-1.18,1.09-1.38c.31-.41.62-.81.92-1.22s.69-.95,1-1.43.59-.83.87-1.25.66-1,1-1.49.55-.84.82-1.27.62-1,.93-1.54.51-.86.76-1.29.59-1.07.88-1.6l.7-1.31.19-.34.27-.58c.56-1.1,1.08-2.22,1.59-3.35.14-.32.29-.63.43-1,.59-1.34,1.14-2.71,1.66-4.09,0-.08.06-.15.08-.22.11-.29.21-.6.31-.9.29-.79.57-1.59.83-2.4.15-.46.28-.91.42-1.37.23-.75.46-1.51.67-2.28.06-.24.14-.48.21-.73s.13-.54.2-.81l.42-1.72c.13-.56.26-1.12.38-1.68s.24-1.16.35-1.75c.06-.3.13-.6.18-.91s.09-.57.14-.86c.09-.49.17-1,.24-1.49s.19-1.25.27-1.88.13-1,.19-1.51c0-.25.06-.49.09-.74,0-.42.07-.84.11-1.26s.08-.88.11-1.32c.06-.72.1-1.45.13-2.18,0-.4,0-.79.06-1.2,0-.1,0-.2,0-.3,0-.94,0-1.89.05-2.84v-.21c0-1,0-2.07-.06-3.11,0-.09,0-.18,0-.27,0-.35,0-.71-.06-1.06,0-.78-.08-1.56-.14-2.35,0-.42-.07-.85-.11-1.28s-.06-.83-.11-1.25-.07-.61-.11-.91c-.05-.46-.11-.91-.16-1.37-.1-.71-.2-1.43-.31-2.15l-.21-1.34c0-.2-.06-.4-.1-.61-.15-.87-.31-1.74-.49-2.61-.28-1.36-.58-2.7-.92-4,0-.07,0-.14,0-.21C646.9,275.41,646.81,275.11,646.73,274.8Z"/><path class="cls-1" d="M529.57,217.17c45.51-7.87,90.27,24.3,100,71.86s-19.31,92.49-64.82,100.36-90.26-24.31-100-71.86S484.07,225,529.57,217.17Z"/></g><g class="cls-2"><path class="cls-1" d="M705.23,567.24c.42-.79.82-1.58,1.2-2.38.18-.36.34-.71.51-1.07s.35-.75.52-1.12.24-.59.37-.89l.6-1.43c.25-.63.5-1.26.74-1.89s.36-1,.52-1.43l.25-.66c.11-.32.19-.64.3-1,.25-.75.48-1.5.71-2.25.15-.51.3-1,.44-1.55.21-.75.4-1.51.58-2.27.08-.31.17-.61.24-.92s.09-.44.13-.66q.21-.94.39-1.89c.11-.57.22-1.14.32-1.72s.2-1.26.29-1.89.17-1.15.24-1.72.14-1.26.2-1.9.12-1.14.16-1.72.08-1.27.11-1.9c0-.42.06-.83.07-1.25,0-.17,0-.34,0-.51,0-.44,0-.89,0-1.33,0-.68,0-1.36,0-2l0-1.37c0-.67-.06-1.34-.1-2q0-.69-.09-1.38-.07-1-.18-2c0-.44-.09-.88-.14-1.32,0-.17,0-.35-.06-.52,0-.4-.13-.81-.19-1.22q-.12-.91-.27-1.83c-.1-.56-.21-1.12-.32-1.68s-.23-1.2-.36-1.8-.25-1.11-.39-1.66-.28-1.19-.44-1.78-.31-1.1-.47-1.64-.34-1.17-.53-1.76c-.06-.19-.11-.39-.17-.59s-.21-.55-.3-.82c-.27-.79-.55-1.58-.84-2.35-.18-.46-.35-.91-.53-1.36-.32-.79-.66-1.58-1-2.36-.13-.29-.24-.58-.37-.87l-.2-.4c-.21-.45-.43-.9-.65-1.35s-.56-1.13-.85-1.68-.48-.89-.73-1.34-.37-.71-.57-1.06-.25-.41-.38-.62l-.61-1c-.37-.59-.74-1.18-1.12-1.77-.22-.33-.43-.66-.65-1l-.33-.51c-.37-.54-.76-1.06-1.15-1.59l-.33-.47c-.57-.75-1.14-1.5-1.74-2.24l-.21-.25-.49-.59c-.52-.62-1.06-1.24-1.6-1.84l-.62-.69-.44-.48c-.54-.58-1.1-1.14-1.66-1.7l-.07-.08q-.9-.88-1.83-1.74l-.47-.41-.64-.57c-.65-.57-1.31-1.12-2-1.67l-.53-.42-.22-.19q-1.14-.88-2.31-1.74l-.61-.42c-.42-.3-.84-.6-1.27-.89s-.85-.57-1.28-.85c-1-.63-2-1.23-3-1.8l-.35-.21-.36-.19c-.55-.31-1.11-.6-1.67-.89l-.71-.37c-.8-.4-1.6-.79-2.4-1.15l0,0-.19-.08c-.81-.36-1.64-.71-2.47-1l-.78-.31q-1.07-.4-2.13-.78l-.46-.16-.2-.07c-.82-.27-1.65-.53-2.48-.78l-16.54-4.8c.83.24,1.66.5,2.48.78l.66.23q1.06.36,2.13.78l.79.3c.82.33,1.65.68,2.47,1.05l.22.09c.8.37,1.6.75,2.4,1.15l.71.37,1.68.89.7.4c1,.58,2,1.17,3,1.81s1.72,1.14,2.55,1.73l.61.42c.86.63,1.71,1.27,2.54,1.93l.52.43c.67.54,1.32,1.1,2,1.66l.65.57c.78.71,1.55,1.42,2.29,2.16a.46.46,0,0,1,.07.07q1.08,1.08,2.1,2.19c.21.22.42.45.62.68.55.61,1.08,1.22,1.6,1.85l.49.59q1,1.21,2,2.49l.34.47c.5.68,1,1.38,1.47,2.09.22.33.44.66.65,1,.38.58.75,1.17,1.12,1.76l.62,1c.32.55.64,1.11.95,1.68s.49.88.72,1.33.57,1.12.85,1.69.45.89.66,1.34.37.85.56,1.27c.35.78.68,1.57,1,2.37.18.45.36.9.53,1.35.29.78.57,1.56.84,2.35.16.47.33.94.48,1.42s.35,1.17.53,1.75.31,1.09.46,1.64.3,1.19.45,1.78.26,1.11.38,1.66.25,1.21.37,1.81.21,1.11.31,1.67.19,1.23.28,1.84.17,1.15.24,1.73.09.88.14,1.32c.07.67.13,1.34.18,2,0,.46.07.91.1,1.37,0,.67.07,1.33.09,2,0,.46,0,.92,0,1.38q0,1,0,2c0,.45,0,.89,0,1.34s-.05,1.17-.08,1.75-.06,1.27-.11,1.91-.1,1.14-.16,1.71-.12,1.27-.2,1.91-.15,1.14-.24,1.71-.18,1.27-.29,1.9-.21,1.14-.32,1.72-.25,1.25-.38,1.88-.25,1.06-.38,1.59c-.18.76-.37,1.51-.58,2.26-.14.52-.29,1-.44,1.56-.22.75-.46,1.5-.71,2.25-.18.54-.35,1.08-.54,1.61s-.35,1-.53,1.43c-.24.64-.48,1.27-.74,1.9s-.39,1-.6,1.43c-.29.67-.58,1.34-.89,2-.17.36-.33.72-.5,1.07-.39.8-.79,1.6-1.2,2.39-.13.23-.24.47-.37.71q-.86,1.61-1.8,3.18c-.47.79-1,1.56-1.46,2.32l-.63,1-1,1.5c-.22.32-.44.63-.67.94-.36.5-.72,1-1.09,1.47l-.65.85c-.41.52-.83,1-1.25,1.54l-.56.69c-.62.72-1.24,1.43-1.88,2.13l-.11.12c-.6.65-1.21,1.29-1.82,1.92l-.72.7c-.43.43-.87.86-1.32,1.28l-.81.75-1.26,1.13-1,.83-1.23,1-1,.79c-.39.31-.79.61-1.2.91s-.8.6-1.21.89l-1.18.83-1.24.82c-.37.25-.75.49-1.12.72-.57.36-1.14.7-1.71,1l-1,.6c-.62.36-1.25.7-1.88,1l-.87.46c-1.11.57-2.22,1.1-3.35,1.6l-.81.35c-1,.42-1.91.81-2.88,1.18l-.81.31-1.17.41c-.49.17-1,.34-1.45.49l-1.21.37c-.48.15-1,.3-1.44.43l-1.23.33-1.45.36-1.24.28-1.46.31-1.25.23-1.47.24-1.26.18q-.74.11-1.47.18l-1.27.13-1.47.12-1.27.08c-.49,0-1,.05-1.48.06l-1.27,0h-1.5l-1.25,0-1.51-.07-1.24-.07-1.54-.14-1.21-.11c-.53-.06-1-.14-1.57-.21l-1.17-.16-1.64-.29-1.09-.2c-.6-.12-1.2-.26-1.81-.4l-.91-.2q-1.35-.33-2.7-.72l16.54,4.8q1.35.39,2.7.72l.9.21c.6.14,1.21.28,1.82.4l1.09.19c.54.1,1.09.21,1.64.29l1.17.16c.52.08,1,.15,1.57.21s.81.08,1.21.12l1.54.14,1.23.06c.51,0,1,.06,1.52.07s.83,0,1.25,0h1.5l1.26,0,1.49-.06,1.27-.08,1.47-.12,1.27-.13,1.47-.18,1.26-.19c.49-.07,1-.15,1.46-.24l1.26-.23c.49-.09,1-.2,1.45-.3l1.25-.28,1.45-.37,1.22-.32,1.45-.43,1.2-.37,1.46-.49,1.17-.42.31-.11.5-.2q1.46-.56,2.88-1.17l.81-.35c1.12-.5,2.24-1,3.35-1.6l.17-.08.7-.39c.63-.33,1.25-.67,1.87-1l1-.6,1.7-1,.55-.33.58-.39,1.24-.83,1.18-.83,1.21-.88.63-.46.57-.45,1-.79,1.23-1c.32-.28.65-.55,1-.84.16-.13.32-.26.47-.4s.52-.48.78-.72l.82-.75c.45-.42.88-.85,1.32-1.28.24-.23.48-.46.71-.71.06-.06.13-.11.18-.17.56-.57,1.1-1.15,1.64-1.74l.12-.12c.59-.64,1.17-1.3,1.73-2l.15-.18c.19-.22.37-.46.56-.69.42-.5.84-1,1.24-1.53l.66-.86c.21-.28.43-.55.64-.84l.45-.62.67-.94c.35-.5.69-1,1-1.51l.63-.95c.09-.14.19-.28.28-.43.4-.62.79-1.26,1.18-1.9.59-1,1.17-2,1.71-3l.09-.17Z"/><path class="cls-1" d="M665.3,465.19c32.65,20.9,42.15,66.18,21.23,101.14s-64.35,46.35-97,25.46-42.14-66.18-21.22-101.14S632.66,444.29,665.3,465.19Z"/></g><path class="cls-1" d="M515.4,531.05c0,.62,0,1.25,0,1.87s0,1.39,0,2.08-.06,1.25-.09,1.88-.08,1.39-.13,2.07-.11,1.27-.17,1.9-.14,1.38-.23,2.07c0,.25,0,.5-.08.73s-.12.69-.16,1c-.13.84-.26,1.66-.41,2.5-.1.58-.21,1.15-.33,1.72-.17.84-.35,1.68-.54,2.51-.08.36-.14.71-.23,1.06s-.14.5-.19.75c-.14.53-.29,1.06-.43,1.6-.2.71-.4,1.42-.62,2.12-.16.54-.33,1.07-.5,1.61-.11.32-.21.66-.31,1s-.32.85-.47,1.27-.28.81-.43,1.21c-.34.9-.7,1.8-1.06,2.7-.11.26-.22.53-.34.8l-.06.19c-.18.4-.36.82-.55,1.23-.32.74-.67,1.48-1,2.21s-.72,1.45-1.09,2.17q-.12.24-.27.48c-.18.37-.38.74-.58,1.1-.32.58-.63,1.16-1,1.73-.21.37-.42.72-.64,1.09l-.42.72c-.19.32-.41.65-.61,1s-.41.66-.63,1c-.38.6-.78,1.19-1.19,1.78-.18.27-.35.54-.54.81-.05.06-.09.13-.14.2s-.07.1-.1.15c-.52.73-1,1.45-1.57,2.15a.61.61,0,0,0-.12.15c-.53.68-1.06,1.36-1.61,2l-.17.21-.71.84c-.43.51-.86,1-1.3,1.51-.26.3-.54.6-.81.9l-.77.85-.47.49c-.33.33-.65.66-1,1l-1.23,1.21-1,1c-.19.17-.39.36-.58.55l-.63.55c-.4.36-.81.73-1.22,1.08l-1.2,1c-.42.35-.84.68-1.26,1-.2.17-.39.34-.59.49l-.55.41L481.36,600l-1.07.76c-.63.44-1.28.87-1.93,1.29l-.72.49-.18.1c-1.14.72-2.29,1.41-3.46,2.07l-.84.46c-1,.54-2,1.06-3,1.55l-.52.27-.33.15-1.23.56c-.5.24-1,.46-1.53.68l-1.25.52-1.53.61-1.29.47c-.52.18-1,.37-1.54.54l-1.32.43-1.54.47-1.34.38-1.55.4-1.36.32c-.52.12-1,.24-1.57.34s-.9.19-1.36.27-1,.2-1.59.28l-1.35.22-1.61.2c-.46,0-.91.12-1.36.16s-1.09.1-1.63.14-.9.08-1.35.11l-1.66.07-1.34,0h-3c-.57,0-1.14,0-1.72-.07l-1.28-.06c-.61,0-1.21-.1-1.8-.15L430,614c-.66-.07-1.33-.17-2-.26-.33,0-.66-.07-1-.13-1-.15-2-.32-3-.51l-16.49-3.2,0,0c.41.08.82.14,1.23.19l.9.12c.6.1,1.2.18,1.8.23a3.42,3.42,0,0,0,.44,0c.59.08,1.18.13,1.77.16.34,0,.66.06,1,.08s.85,0,1.28.06,1.08.06,1.62.07h2.92c.51,0,1,0,1.53-.05l1.65-.07c1-.05,2-.14,3-.25s1.95-.21,2.92-.35l1.5-.24c.49-.09,1-.17,1.49-.27l1.71-.34,1.23-.27,1.34-.32.68-.17.11,0c.65-.16,1.32-.34,2-.55s1.15-.33,1.72-.51.85-.27,1.27-.42c.94-.31,1.89-.65,2.83-1l1.52-.61,1.27-.52c.51-.22,1-.44,1.52-.68s.81-.36,1.2-.55a1.23,1.23,0,0,0,.26-.12c.71-.34,1.42-.69,2.12-1.06.51-.26,1-.53,1.5-.8l.06,0,.64-.35,1.58-.9.3-.18c.58-.35,1.16-.7,1.72-1.06a3.79,3.79,0,0,0,.45-.29l.45-.3c.65-.41,1.29-.85,1.93-1.29.18-.12.35-.25.54-.37.76-.54,1.51-1.1,2.25-1.67l1.17-.91.09-.07,1.15-.94.17-.14,1-.87,1.23-1.08,1.07-1c.39-.36.76-.71,1.14-1.09l1.23-1.21,1-1c.22-.22.43-.45.64-.67.48-.52,1-1,1.43-1.57s.88-1,1.3-1.52c.24-.27.47-.55.7-.83l.67-.82c.3-.37.59-.75.87-1.12l.25-.32.1-.14c.18-.22.35-.45.51-.67l.84-1.15c.34-.49.69-1,1-1.48l1-1.44c.32-.47.63-1,.92-1.44s.65-1,1-1.58l.67-1.16c.31-.55.62-1.1.92-1.66.2-.34.38-.69.56-1,.47-.89.94-1.81,1.38-2.73.6-1.25,1.17-2.51,1.7-3.78.12-.27.23-.55.34-.82s.32-.78.46-1.17c.22-.55.42-1.11.63-1.66.12-.3.22-.6.33-.9s.15-.42.22-.63c.19-.54.37-1.09.54-1.63.28-.86.54-1.73.79-2.59q.18-.57.33-1.14c.07-.23.12-.45.19-.67l.24-.93c.06-.23.11-.47.17-.69.09-.38.18-.74.26-1.12l0-.16c.08-.37.17-.72.24-1.09s.2-1,.29-1.43.21-1,.29-1.55c.21-1,.37-2,.51-3,.25-1.76.44-3.51.56-5.27,0-.34.05-.69.06-1s0-.39,0-.58l0-.46v-.11c0-.52,0-1,.07-1.55,0-.07,0-.15,0-.22s0-.37,0-.55c0-.51,0-1,0-1.53v-1.87c0-.08,0-.15,0-.23,0-.61,0-1.24-.07-1.85,0-.19,0-.37,0-.57,0-.43,0-.85-.06-1.27v-.07c0-.48-.07-1-.11-1.42v0c-.09-1.11-.2-2.22-.34-3.33,0-.13,0-.25,0-.37s0-.19,0-.27c-.07-.49-.13-1-.21-1.47l-.06-.43c-.07-.48-.15-1-.24-1.47l0-.18-.15-.84c-.06-.35-.13-.68-.19-1,0,0,0-.08,0-.12-.1-.48-.19-.95-.28-1.41-.27-1.29-.57-2.56-.93-3.82-.06-.3-.15-.59-.24-.89s-.16-.59-.25-.88-.2-.65-.29-1-.2-.65-.29-1a2.25,2.25,0,0,1-.08-.24c-.35-1.12-.73-2.23-1.14-3.34a.64.64,0,0,1,0-.07l0-.05c-.11-.28-.21-.56-.33-.84-.21-.59-.44-1.17-.68-1.75-.12-.31-.26-.63-.39-.93s-.15-.35-.24-.52c-.13-.33-.27-.64-.41-1s-.37-.83-.57-1.24l-.09-.21c-.15-.35-.32-.68-.49-1s-.44-.92-.66-1.36a.21.21,0,0,1-.06-.1c-.2-.41-.42-.8-.64-1.21-.44-.85-.91-1.69-1.39-2.52-.28-.47-.56-.94-.85-1.4l-.43-.69c-.22-.35-.43-.7-.66-1.05s-.37-.56-.56-.84c-.51-.76-1-1.52-1.55-2.26a.05.05,0,0,0,0-.05l-.74-1,0,0c-.44-.6-.9-1.19-1.36-1.77-.24-.34-.51-.68-.79-1-.58-.72-1.19-1.42-1.81-2.12-.13-.16-.27-.31-.41-.47-.4-.45-.82-.91-1.24-1.35l-1.11-1.16-.6-.58,0,0c-.41-.41-.82-.8-1.23-1.18l-.61-.59,0,0-.6-.55-.68-.61c-.23-.2-.45-.41-.69-.61-.46-.41-.92-.8-1.4-1.19l-1.28-1c-.51-.4-1-.78-1.56-1.17L465,464a2.7,2.7,0,0,0-.36-.26l-.68-.5h0c-.37-.27-.76-.52-1.15-.78l-.58-.4a.18.18,0,0,0-.09-.06c-.46-.31-.92-.6-1.39-.89l-.42-.27c-.35-.21-.7-.43-1.06-.63h0c-.71-.42-1.42-.83-2.14-1.22l-1.48-.79c-.57-.3-1.15-.58-1.72-.85s-1.42-.67-2.13-1l-.39-.17c-.43-.2-.87-.37-1.3-.55s-.94-.4-1.41-.58-.91-.36-1.36-.53-1.06-.39-1.6-.56l-1.39-.46-1.4-.43c-.3-.1-.6-.19-.89-.26l-.14-.3L454.56,455c.93.17,1.85.38,2.77.59l.22.06.49.11,0,0q1.19.29,2.37.63l.89.25c.92.28,1.85.57,2.77.89l.21.06,0,0c.91.32,1.82.65,2.71,1,.28.1.54.21.81.32.64.26,1.28.53,1.9.81l.4.16c.14.06.27.14.41.19,1.15.53,2.3,1.08,3.43,1.66l1.47.78c.5.27,1,.56,1.47.84l.69.4c.91.54,1.81,1.09,2.68,1.66a2,2,0,0,1,.26.18l.61.41c.78.51,1.54,1.05,2.29,1.6l.77.56.54.4c.73.55,1.45,1.12,2.16,1.7l.08.08c.67.54,1.32,1.1,2,1.67.18.15.35.32.53.48l.73.68c.66.6,1.29,1.22,1.93,1.84.19.2.39.39.59.58s.17.17.24.26c.73.73,1.42,1.48,2.1,2.25.14.16.28.31.41.47.47.54,1,1.07,1.4,1.62.14.17.27.34.41.5.27.33.54.67.8,1,.47.59.93,1.2,1.39,1.8l.77,1.05c.16.22.32.42.47.64s.48.73.72,1.09.62.91.92,1.37.74,1.16,1.09,1.74.57.93.84,1.4l.25.41c.17.3.32.6.48.9.45.82.91,1.64,1.32,2.47.25.46.48.93.71,1.41.39.81.78,1.63,1.14,2.46.13.29.28.57.41.86s.16.42.25.62c.26.62.51,1.23.74,1.85s.47,1.15.67,1.72.45,1.26.67,1.9.39,1.16.58,1.75.39,1.28.57,1.93.34,1.18.5,1.77.33,1.3.49,2c.11.44.22.87.32,1.3,0,.18.06.38.11.56.11.46.19.93.29,1.41.14.72.27,1.44.4,2.16.08.49.16,1,.23,1.48.11.71.21,1.44.29,2.16.07.49.13,1,.19,1.48.07.74.14,1.47.2,2.22,0,.48.08,1,.11,1.44,0,.19,0,.37,0,.56,0,.45,0,.9,0,1.35C515.37,529.66,515.39,530.35,515.4,531.05Z"/><path class="cls-1" d="M459.26,460.23q-.35-.18-.69-.39c-.48-.28-1-.56-1.45-.83C457.84,459.4,458.55,459.81,459.26,460.23Z"/><path class="cls-1" d="M460.34,460.9c-.36-.23-.71-.45-1.07-.66.36.2.71.42,1.06.63Z"/><path class="cls-1" d="M411.87,610.47l1,.09.81.07C413.05,610.6,412.46,610.55,411.87,610.47Z"/><path class="cls-1" d="M438.36,608.27l1.21-.34c-.66.21-1.33.39-2,.55Z"/><path class="cls-1" d="M451.78,603.2c.5-.25,1-.49,1.5-.75-.7.37-1.41.72-2.12,1.06Z"/><path class="cls-1" d="M453.28,602.45c.53-.27,1-.55,1.56-.84l-.06,0C454.28,601.92,453.79,602.19,453.28,602.45Z"/><path class="cls-1" d="M479.8,580.07l-.25.32.86-1.13c-.16.22-.33.45-.51.67Z"/><path class="cls-1" d="M490.69,561c-.11.27-.22.55-.34.82l.26-.64a1.59,1.59,0,0,0,.07-.2c.16-.39.32-.76.47-1.15C491,560.21,490.85,560.6,490.69,561Z"/><path class="cls-1" d="M494.42,549.67l-.24.93c.14-.55.28-1.08.41-1.62C494.53,549.2,494.48,549.44,494.42,549.67Z"/><path class="cls-1" d="M496.22,540.66c-.14,1-.3,2-.51,3,.16-.84.3-1.66.41-2.5,0-.18.06-.35.08-.52Z"/><path class="cls-1" d="M635.65,863.25c0,1.24-.1,2.42-.24,3.62,0,0,0,.14,0,.19a32.33,32.33,0,0,1-6.57,16.56,34.21,34.21,0,0,1-14.22,10,63.93,63.93,0,0,1-23.46,4.28l-261.77-.7a57.24,57.24,0,0,1-52.3-34.32L47.72,337.09A38.08,38.08,0,0,1,52.87,298l.19-.23.69-.83c.11-.13.22-.26.34-.38s.26-.31.4-.46l.61-.65.92-.92c.29-.29.58-.56.88-.83s.42-.39.65-.57c.59-.53,1.21-1,1.84-1.49.37-.29.76-.57,1.15-.84s.75-.52,1.13-.77l.89-.56c.23-.14.45-.28.69-.41s.76-.44,1.15-.64l.91-.47c.32-.18.64-.33,1-.48l.13-.05.81-.37c.63-.29,1.28-.55,1.93-.79s1.09-.4,1.64-.58,1.22-.38,1.83-.55l.78-.21.8-.19a7.66,7.66,0,0,1,.8-.18c.35-.09.71-.15,1.07-.22.71-.14,1.43-.26,2.16-.34s1.46-.18,2.19-.24l.85-.05c.45,0,.89-.06,1.34-.07h1.18l241,.66A87.27,87.27,0,0,1,404,335.65l54,120.11-.49-.11-.22-.06c-.92-.21-1.84-.42-2.77-.59l-12.65-2.46.14.3c.29.07.59.16.89.26l-.88-.25h0l-1.15-.32a.17.17,0,0,0-.1,0c-.61-.18-1.23-.33-1.85-.47s-1.17-.27-1.75-.38c-31.29-6.54-64.4,8.56-81.45,38.8-.91,1.62-1.76,3.26-2.58,4.95s-1.48,3.21-2.14,4.83c-15.82,38.88-.76,83.94,35.14,102.54a73.07,73.07,0,0,0,19.74,6.84l1.22.22.37.06,0,0,16.49,3.2c1,.19,2,.36,3,.51.34.06.67.09,1,.13.67.09,1.34.19,2,.26l1.21.1c.59,0,1.19.12,1.8.15l1.28.06c.58,0,1.15.06,1.72.07h3l1.34,0,1.66-.07c.45,0,.9-.06,1.35-.11s1.08-.08,1.63-.14.9-.11,1.36-.16l1.61-.2,1.35-.22c.54-.08,1.07-.18,1.59-.28s.91-.17,1.36-.27,1.05-.22,1.57-.34l1.36-.32,1.55-.4,1.34-.38,1.54-.47,1.32-.43c.52-.17,1-.36,1.54-.54l1.29-.47,1.53-.61,1.25-.52c.52-.22,1-.44,1.53-.68l1.23-.56.33-.15.52-.27c1-.49,2-1,3-1.55l.84-.46c1.17-.66,2.32-1.35,3.46-2.07l.18-.1.72-.49c.65-.42,1.3-.85,1.93-1.29l1.07-.76,1.74-1.29.55-.41c.2-.15.39-.32.59-.49.42-.33.84-.66,1.26-1l1.2-1c.41-.35.82-.72,1.22-1.08l.63-.55c.19-.19.39-.38.58-.55l1-1,1.23-1.21c.32-.34.64-.67,1-1l.47-.49.77-.85c.27-.3.55-.6.81-.9.44-.5.87-1,1.3-1.51l.71-.84.17-.21c.55-.67,1.08-1.35,1.61-2a.61.61,0,0,1,.12-.15c.53-.7,1-1.42,1.57-2.15,0-.05.07-.09.1-.15s.09-.14.14-.2c.19-.27.36-.54.54-.81.41-.59.81-1.18,1.19-1.78.22-.33.42-.66.63-1s.42-.65.61-1l.42-.72c.22-.37.43-.72.64-1.09.33-.57.64-1.15,1-1.73.2-.36.4-.73.58-1.1q.15-.24.27-.48c.37-.72.74-1.44,1.09-2.17s.69-1.47,1-2.21L630.46,839.12A56.09,56.09,0,0,1,635.65,863.25Z"/><path class="cls-1" d="M16.77,337.16v-1"/><path class="cls-1" d="M570.88,920.74,302.7,920a57.39,57.39,0,0,1-52.47-34.85L20,351.36a38.94,38.94,0,0,1-3.21-15.17c0-1.1.06-2.2.12-3.25,0-.18,0-.37,0-.52,2.61-42,43.76-48.85,66.89-48.79-11.82,0-23.33,4.94-30.74,14.14-.05.08-.13.15-.19.23a38.12,38.12,0,0,0-5.16,39.1L277.06,862.9a57.24,57.24,0,0,0,52.3,34.32l261.78.7a63.91,63.91,0,0,0,23.45-4.28,34.31,34.31,0,0,0,14.23-10,32.44,32.44,0,0,0,6.56-16.56c0-.06,0-.13,0-.19.13-1.2.22-2.38.24-3.61C635.79,882.46,637.33,920.92,570.88,920.74Z"/><path class="cls-1" d="M103.16,518.36l.27,0,.27,0,.27,0a2.66,2.66,0,0,0,.28,0l.27,0,.27,0,.27,0,.27,0,.27,0,.27,0a2.23,2.23,0,0,0,.27,0,2.66,2.66,0,0,0,.28,0l.27,0,.27,0,.27,0a1.24,1.24,0,0,0,.27,0l.27,0,.27,0a2.23,2.23,0,0,0,.27,0,1.27,1.27,0,0,0,.28,0l.27,0,.27,0,.27,0,.27,0,.27,0,.27,0a2.23,2.23,0,0,0,.27,0l.28,0a2.23,2.23,0,0,0,1.74-.86c1.88-2.25,1.64-8.11-.53-13.1l-31.8-73.18c-1.68-3.86-4-6-5.86-5.8l-.27,0-.27,0-.27,0-.27,0a2.4,2.4,0,0,0-.28,0l-.27,0a1.24,1.24,0,0,0-.27,0l-.27,0-.27,0-.27,0a1.24,1.24,0,0,0-.27,0l-.28,0-.27,0-.27,0-.27,0-.27,0-.27,0-.27,0-.27,0a2.66,2.66,0,0,0-.28,0l-.27,0-.27,0-.27,0-.27,0-.27,0-.27,0-.27,0a2.4,2.4,0,0,0-.28,0l-.27,0-.27,0a2.2,2.2,0,0,0-1.74.85c-1.88,2.25-1.65,8.12.52,13.1l31.81,73.18c1.68,3.86,4,6,5.86,5.8l.27,0Z"/><path class="cls-1" d="M104.09,517.59h0c-1.88,2.24-5.16,0-7.33-5L65,439.44c-2.17-5-2.4-10.85-.52-13.1h0c1.88-2.24,5.16,0,7.33,5l31.8,73.17C105.73,509.47,106,515.34,104.09,517.59Z"/><path class="cls-1" d="M411.87,610.47l1,.09.81.07C413.05,610.6,412.46,610.55,411.87,610.47Z"/><path class="cls-1" d="M438.36,608.27l1.21-.34c-.66.21-1.33.39-2,.55Z"/><path class="cls-1" d="M453.28,602.45c-.7.37-1.41.72-2.12,1.06l.62-.31C452.28,603,452.79,602.71,453.28,602.45Z"/><path class="cls-1" d="M454.78,601.65c-.5.27-1,.54-1.5.8.53-.27,1-.55,1.56-.84Z"/><path class="cls-1" d="M479.8,580.07l-.25.32.86-1.13c-.16.22-.33.45-.51.67Z"/><path class="cls-1" d="M490.69,561c-.11.27-.22.55-.34.82l.26-.64a1.59,1.59,0,0,0,.07-.2Z"/><path class="cls-1" d="M597.81,879.61l-268.41-.72a38.87,38.87,0,0,1-35.53-23.33L64.52,329.76A19.85,19.85,0,0,1,82.77,302l56.05.15a14.39,14.39,0,0,1,13.07,8.41c3,6.48,11.21,11.78,18.31,11.78H300.71c5.35,0,8.59-3,8.59-7.26a11,11,0,0,0-1.09-4.52,5.6,5.6,0,0,1,5.11-7.94l16.9.05a68.7,68.7,0,0,1,62.5,40.54l49.19,109.36.14.3h0l-1.15-.32a.17.17,0,0,0-.1,0c-.61-.18-1.23-.33-1.85-.47s-1.17-.27-1.75-.38c-31.29-6.54-64.4,8.56-81.45,38.8-.91,1.62-1.76,3.26-2.58,4.95s-1.48,3.21-2.14,4.83c-15.82,38.88-.76,83.94,35.14,102.54a73.07,73.07,0,0,0,19.74,6.84l1.22.22.37.06,0,0,16.49,3.2c1,.19,2,.36,3,.51.34.06.67.09,1,.13.67.09,1.34.19,2,.26l1.21.1c.59,0,1.19.12,1.8.15l1.28.06c.58,0,1.15.06,1.72.07h3l1.34,0,1.66-.07c.45,0,.9-.06,1.35-.11s1.08-.08,1.63-.14.9-.11,1.36-.16l1.61-.2,1.35-.22c.54-.08,1.07-.18,1.59-.28s.91-.17,1.36-.27,1.05-.22,1.57-.34l1.36-.32,1.55-.4,1.34-.38,1.54-.47,1.32-.43c.52-.17,1-.36,1.54-.54l1.29-.47,1.53-.61,1.25-.52c.52-.22,1-.44,1.53-.68l1.23-.56.33-.15.52-.27c1-.49,2-1,3-1.55l.84-.46c1.17-.66,2.32-1.35,3.46-2.07l.18-.1.72-.49c.65-.42,1.3-.85,1.93-1.29l1.07-.76,1.74-1.29.55-.41c.2-.15.39-.32.59-.49.42-.33.84-.66,1.26-1l1.2-1c.41-.35.82-.72,1.22-1.08l.63-.55c.19-.19.39-.38.58-.55l1-1,1.23-1.21c.32-.34.64-.67,1-1l.47-.49.77-.85c.27-.3.55-.6.81-.9.44-.5.87-1,1.3-1.51l.71-.84.17-.21c.55-.67,1.08-1.35,1.61-2a.61.61,0,0,1,.12-.15c.53-.7,1-1.42,1.57-2.15L619.19,846.66A23.36,23.36,0,0,1,597.81,879.61Z"/><ellipse class="cls-1" cx="172.91" cy="307.34" rx="4.97" ry="6.75" transform="translate(-176.49 259.63) rotate(-52.86)"/><path class="cls-1" d="M290.62,311.24H192.17c-2.83,0-5.72-1.75-6.42-3.9h0c-.71-2.14,1-3.9,3.87-3.9h98.45c2.83,0,5.72,1.76,6.42,3.9h0C295.19,309.49,293.45,311.24,290.62,311.24Z"/><path class="cls-1" d="M425.9,673H342.63L295.77,564.81l41.78-95.69L351,500.23c-15.82,38.88-.76,83.94,35.14,102.54a72.25,72.25,0,0,0,11.34,4.7Z"/><path class="cls-1" d="M254.29,469.12l41.48,95.69,41.78-95.69Z"/><polyline class="cls-1" points="407.52 609.92 438.39 681.17 337.23 681.17 286.59 564.31 241.79 460.93 342.95 460.93 355.75 490.45"/><path class="cls-1" d="M432.43,776.39a5.62,5.62,0,0,1-1.3,2.32,3.78,3.78,0,0,1-3.56,1.08,5,5,0,0,1-2.52-1.14c-2.86-2.44-5.91-4.63-9-6.82-2.65-1.9-5.34-3.75-8-5.63l-.4-.24a.92.92,0,0,1-.6-.19c-3.11-2.16-6.25-4.28-9.39-6.41-.89-.61-1.78-1.2-2.68-1.79a2.77,2.77,0,0,1-.94-.89.89.89,0,0,1,.22-1.13,11.46,11.46,0,0,1,1.15-1c1.18-1,2.34-2.11,3.53-3.16,1.49-1.32,3-2.67,4.44-4q1.92-1.73,3.82-3.47l4.19-3.83c.83-.76,1.65-1.53,2.47-2.3l5.83-5.49q3.65-3.45,7.15-7a29.72,29.72,0,0,0,2.56-2.92,2.27,2.27,0,0,0,.18-.25c.08-.14.24-.29.09-.45s-.32,0-.47,0c-1.18.65-2.34,1.34-3.49,2-6.58,4-13.08,8-19.59,12.09q-8.42,5.25-16.8,10.54l-6.11,3.86a1.64,1.64,0,0,1-.83.3.8.8,0,0,1-.42-.18c-1.19-.37-2.37-.74-3.56-1.13L362.61,744a3.11,3.11,0,0,1-1.52-1,2.13,2.13,0,0,1,.25-2.92,7.48,7.48,0,0,1,2.06-1.3c2.87-1.32,5.79-2.51,8.73-3.66q4.85-1.9,9.7-3.74c3.24-1.23,6.48-2.44,9.73-3.66,2.56-1,5.14-1.91,7.71-2.86a1.78,1.78,0,0,1,1.17-.45l.07,0c.06-.09.12-.2.25-.2.41,0,.73-.35,1.15-.32l.08,0c.1-.27.36-.15.55-.22h.07c.06-.08.1-.17.2-.19.42,0,.76-.37,1.2-.34l.08,0c0-.1.14-.21.21-.21.43,0,.76-.36,1.19-.31l.08,0c1.9-.7,3.81-1.41,5.72-2.1l15.2-5.55,10-3.62c1.75-.64,3.5-1.28,5.26-1.89a7.39,7.39,0,0,1,2.59-.44,2.05,2.05,0,0,1,2.26,1.84,9.4,9.4,0,0,1,0,2.9A84.45,84.45,0,0,1,445,723c-.74,3.6-1.54,7.2-2.36,10.78,0,.14-.05.28-.08.42-.56,2.43-1.12,4.85-1.69,7.28-2.68,11.51-5.48,23-8.3,34.47C432.5,776.06,432.46,776.23,432.43,776.39Z"/><path class="cls-1" d="M382,750.27a2.38,2.38,0,0,0,1.38-.44q13.32-8.39,26.67-16.75c5.37-3.36,10.76-6.71,16.2-10,.92-.55,1.86-1.08,2.79-1.61a1.46,1.46,0,0,1,.69-.26c.34,0,.47.15.32.45a5,5,0,0,1-.43.69,32.62,32.62,0,0,1-2.76,3.11c-1.49,1.54-3,3.06-4.54,4.54-3,2.85-5.93,5.68-9,8.45-1.8,1.65-3.57,3.32-5.37,5q-3.15,2.88-6.34,5.74l-5.74,5.18-1.31,1.16a1,1,0,0,0-.37,1.11c0,2.55-.43,5.08-.63,7.62-.19,2.35-.44,4.69-.65,7l-.36,3.75a5.19,5.19,0,0,0,.16,2.11c0,.14.17.35-.16.33a5.57,5.57,0,0,1-1.61-2.34c-1.55-4.25-3.08-8.5-4.62-12.76-.88-2.43-1.75-4.87-2.63-7.3C383.14,753.48,382.56,751.88,382,750.27Z"/><path class="cls-1" d="M392.57,777.49c-.5-1.7-.09-3.39.05-5.08.22-2.68.49-5.36.74-8,.23-2.45.47-4.9.7-7.34a.61.61,0,0,1,.15-.39,2,2,0,0,0,.59.54q6.27,4.2,12.47,8.47l.4.31c-2.06,1.79-4.13,3.58-6.13,5.44q-1.74,1.62-3.42,3.28a21.23,21.23,0,0,1-2.69,2.41,5.45,5.45,0,0,1-1.32.72A1.35,1.35,0,0,1,392.57,777.49Z"/><line class="cls-1" x1="396.17" y1="281.47" x2="469.01" y2="156.97"/><line class="cls-1" x1="477.17" y1="143.01" x2="519.97" y2="69.87"/><line class="cls-1" x1="338.93" y1="254.38" x2="348.8" y2="141.66"/><line class="cls-1" x1="349.91" y1="129.03" x2="355.71" y2="62.81"/><line class="cls-1" x1="228.81" y1="65.77" x2="258.8" y2="174.87"/><line class="cls-1" x1="262.16" y1="187.1" x2="279.77" y2="251.19"/><line class="cls-1" x1="643.75" y1="770.23" x2="778.47" y2="854.96"/><line class="cls-1" x1="793.57" y1="864.46" x2="872.71" y2="914.24"/><line class="cls-1" x1="619.23" y1="710.42" x2="773.82" y2="733.9"/><line class="cls-1" x1="791.15" y1="736.54" x2="881.98" y2="750.33"/><line class="cls-1" x1="876.89" y1="611.71" x2="734.03" y2="639.47"/><line class="cls-1" x1="718.02" y1="642.58" x2="634.1" y2="658.88"/><line class="cls-1" x1="716.79" y1="436.35" x2="875.11" y2="452.58"/><line class="cls-1" x1="892.86" y1="454.4" x2="985.87" y2="463.93"/><line class="cls-1" x1="652.75" y1="399.01" x2="810.89" y2="348.35"/><line class="cls-1" x1="828.61" y1="342.67" x2="921.51" y2="312.91"/><line class="cls-1" x1="860.54" y1="198.02" x2="764.69" y2="269.62"/><line class="cls-1" x1="753.95" y1="277.64" x2="697.63" y2="319.7"/></svg>