<?xml version="1.0" encoding="utf-8"?>
<!-- Generator: Adobe Illustrator 22.1.0, SVG Export Plug-In . SVG Version: 6.00 Build 0)  -->
<svg version="1.1" id="Layer_1" xmlns="http://www.w3.org/2000/svg" xmlns:xlink="http://www.w3.org/1999/xlink" x="0px" y="0px"
	 viewBox="0 0 348 323" enable-background="new 0 0 348 323" xml:space="preserve">
<path fill="#11D467" stroke="#11D467" stroke-linecap="round" stroke-linejoin="round" stroke-miterlimit="10" d="M223.5,86.9
	c-2.3-8.9-8.5-16.6-16.8-20.5c-7.8-3.8-17-3.8-24.8,0c-2.1,1-4.2,2.1-6.3,3.1c11.5-5.7,25.4-2.3,33.9,6.9c8.4,9,11.1,22.8,6,34.1
	c-2.6,5.9-7.2,10.8-13,13.6c4.1-2,8.5-3.9,12-6.9c5.5-4.7,8.9-11.5,9.7-18.7C224.8,94.6,224.5,90.6,223.5,86.9z"/>
<g>
	<path fill="none" stroke="#11D467" stroke-linecap="round" stroke-linejoin="round" stroke-miterlimit="10" d="M183.1,67
		c15.7-2.7,31.2,8.4,34.5,24.8s-6.7,31.9-22.4,34.6c-15.7,2.7-31.2-8.4-34.5-24.8C157.3,85.2,167.4,69.7,183.1,67z"/>
</g>
<path fill="#11D467" stroke="#11D467" stroke-linecap="round" stroke-linejoin="round" stroke-miterlimit="10" d="M243.7,187.8
	c3.6-6.8,4.1-15.1,1.2-22.2c-2.7-6.6-8.1-11.8-15-13.9c-2-0.6-4-1.2-6-1.7c10.5,3,17.2,13.2,17.1,23.9c0,10.6-6.6,20.7-16.6,24.5
	c-4.7,1.8-9.9,2.1-14.8,0.7c3.8,1.1,7.7,2.5,11.7,2.6c5.7,0.1,11.3-2,15.7-5.6C239.9,193.7,242.1,190.9,243.7,187.8z"/>
<g>
	<path fill="none" stroke="#11D467" stroke-linecap="round" stroke-linejoin="round" stroke-miterlimit="10" d="M229.9,152.6
		c11.3,7.2,14.6,22.8,7.3,34.9c-7.2,12.1-22.2,16-33.5,8.8c-11.3-7.2-14.5-22.8-7.3-34.9C203.7,149.3,218.7,145.4,229.9,152.6z"/>
</g>
<path fill="#11D467" stroke="#11D467" stroke-linecap="round" stroke-linejoin="round" stroke-miterlimit="10" d="M178.2,175.3
	c0.1,8-3.1,15.9-8.9,21.4c-5.6,5.4-13.6,8.2-21.3,7.1c-2.3-0.3-4.8-0.7-7.1-1.3c11.2,2.1,22.3-4.5,27.5-14.3
	c5-9.5,4.5-21.5-1.8-30.2c-1.7-2.4-3.9-4.5-6.3-6.2c-1.1-0.8-2.4-1.5-3.6-2.1c-0.7-0.3-1.3-0.6-2-0.9c-0.5-0.2-1.6-0.3-1.9-0.7
	c4,0.8,7.9,1.4,11.5,3.4c5.3,2.9,9.4,7.6,11.7,13.1C177.4,168.1,178.1,171.7,178.2,175.3z"/>
<path fill="none" stroke="#11D467" stroke-linecap="round" stroke-linejoin="round" stroke-miterlimit="10" d="M219.7,290
	c0,0.4,0,0.8-0.1,1.2c0,0,0,0,0,0.1c-0.2,2.1-1,4-2.3,5.7c-1.2,1.5-3,2.7-4.9,3.5c-2.6,1-5.5,1.5-8.1,1.5l-90.4-0.2
	c-7.8,0-14.9-4.7-18.1-11.8L16.7,108.4c-2-4.5-1.3-9.6,1.8-13.5c0,0,0-0.1,0.1-0.1c0.1-0.1,0.2-0.2,0.2-0.3c0,0,0.1-0.1,0.1-0.1
	c0-0.1,0.1-0.1,0.1-0.2c0.1-0.1,0.1-0.1,0.2-0.2c0.1-0.1,0.2-0.2,0.3-0.3c0.1-0.1,0.2-0.2,0.3-0.3c0.1-0.1,0.1-0.1,0.2-0.2
	c0.2-0.2,0.4-0.4,0.6-0.5c0.1-0.1,0.3-0.2,0.4-0.3c0.1-0.1,0.3-0.2,0.4-0.3c0.1-0.1,0.2-0.1,0.3-0.2c0.1,0,0.2-0.1,0.2-0.1
	c0.1-0.1,0.3-0.2,0.4-0.2c0.1-0.1,0.2-0.1,0.3-0.2c0.1-0.1,0.2-0.1,0.3-0.2c0,0,0,0,0,0c0.1,0,0.2-0.1,0.3-0.1
	c0.2-0.1,0.4-0.2,0.7-0.3c0.2-0.1,0.4-0.1,0.6-0.2c0.2-0.1,0.4-0.1,0.6-0.2c0.1,0,0.2,0,0.3-0.1c0.1,0,0.2,0,0.3-0.1
	c0.1,0,0.2,0,0.3-0.1c0.1,0,0.2-0.1,0.4-0.1c0.2,0,0.5-0.1,0.7-0.1c0.2,0,0.5-0.1,0.8-0.1c0.1,0,0.2,0,0.3,0c0.2,0,0.3,0,0.5,0
	c0.1,0,0.3,0,0.4,0h0l83.2,0.2c11.8,0,22.5,7,27.3,17.7l18.7,41.5c-0.1,0-0.1,0-0.2,0c0,0-0.1,0-0.1,0c-0.3-0.1-0.6-0.1-1-0.2
	l-4.4-0.9l0,0.1c0.1,0,0.2,0.1,0.3,0.1c-0.1,0-0.2-0.1-0.3-0.1h0c-0.1,0-0.3-0.1-0.4-0.1c0,0,0,0,0,0c-0.2-0.1-0.4-0.1-0.6-0.2
	c-0.2,0-0.4-0.1-0.6-0.1c-10.8-2.3-22.2,3-28.1,13.4c-0.3,0.6-0.6,1.1-0.9,1.7c-0.3,0.5-0.5,1.1-0.7,1.7c-5.5,13.4-0.3,29,12.1,35.4
	c1.3,0.7,2.6,1.2,3.9,1.6c1,0.3,1.9,0.6,2.9,0.7c0.1,0,0.3,0.1,0.4,0.1c0,0,0.1,0,0.1,0l0,0l5.7,1.1c0.3,0.1,0.7,0.1,1,0.2
	c0.1,0,0.2,0,0.3,0c0.2,0,0.5,0.1,0.7,0.1c0.1,0,0.3,0,0.4,0c0.2,0,0.4,0,0.6,0.1c0.1,0,0.3,0,0.4,0c0.2,0,0.4,0,0.6,0
	c0.2,0,0.3,0,0.5,0c0.2,0,0.4,0,0.6,0c0.2,0,0.3,0,0.5,0c0.2,0,0.4,0,0.6,0c0.2,0,0.3,0,0.5,0c0.2,0,0.4,0,0.6,0
	c0.2,0,0.3,0,0.5-0.1c0.2,0,0.4,0,0.6-0.1c0.2,0,0.3,0,0.5-0.1c0.2,0,0.4-0.1,0.5-0.1c0.2,0,0.3-0.1,0.5-0.1c0.2,0,0.4-0.1,0.5-0.1
	c0.2,0,0.3-0.1,0.5-0.1c0.2,0,0.4-0.1,0.5-0.1c0.2,0,0.3-0.1,0.5-0.1c0.2-0.1,0.4-0.1,0.5-0.2c0.2,0,0.3-0.1,0.5-0.1
	c0.2-0.1,0.4-0.1,0.5-0.2c0.1-0.1,0.3-0.1,0.4-0.2c0.2-0.1,0.4-0.1,0.5-0.2c0.1-0.1,0.3-0.1,0.4-0.2c0.2-0.1,0.4-0.2,0.5-0.2
	c0.1-0.1,0.3-0.1,0.4-0.2c0,0,0.1,0,0.1-0.1c0.1,0,0.1-0.1,0.2-0.1c0.3-0.2,0.7-0.3,1-0.5c0.1-0.1,0.2-0.1,0.3-0.2
	c0.4-0.2,0.8-0.5,1.2-0.7c0,0,0,0,0.1,0c0.1-0.1,0.2-0.1,0.2-0.2c0.2-0.1,0.4-0.3,0.7-0.4c0.1-0.1,0.2-0.2,0.4-0.3
	c0.2-0.1,0.4-0.3,0.6-0.4c0.1,0,0.1-0.1,0.2-0.1c0.1-0.1,0.1-0.1,0.2-0.2c0.1-0.1,0.3-0.2,0.4-0.3c0.1-0.1,0.3-0.2,0.4-0.3
	c0.1-0.1,0.3-0.2,0.4-0.4c0.1-0.1,0.1-0.1,0.2-0.2c0.1-0.1,0.1-0.1,0.2-0.2c0.1-0.1,0.2-0.2,0.3-0.3c0.1-0.1,0.3-0.3,0.4-0.4
	c0.1-0.1,0.2-0.2,0.3-0.3c0.1-0.1,0.1-0.1,0.2-0.2c0.1-0.1,0.2-0.2,0.3-0.3c0.1-0.1,0.2-0.2,0.3-0.3c0.2-0.2,0.3-0.3,0.4-0.5
	c0.1-0.1,0.2-0.2,0.2-0.3c0,0,0,0,0.1-0.1c0.2-0.2,0.4-0.5,0.6-0.7c0,0,0,0,0-0.1c0.2-0.2,0.4-0.5,0.5-0.7c0,0,0,0,0-0.1
	c0,0,0,0,0-0.1c0.1-0.1,0.1-0.2,0.2-0.3c0.1-0.2,0.3-0.4,0.4-0.6c0.1-0.1,0.1-0.2,0.2-0.3c0.1-0.1,0.1-0.2,0.2-0.3
	c0-0.1,0.1-0.2,0.1-0.2c0.1-0.1,0.1-0.2,0.2-0.4c0.1-0.2,0.2-0.4,0.3-0.6c0.1-0.1,0.1-0.3,0.2-0.4c0-0.1,0.1-0.1,0.1-0.2
	c0.1-0.2,0.3-0.5,0.4-0.8c0.1-0.3,0.2-0.5,0.3-0.8l42.3,93.9C219.1,284.2,219.8,287.2,219.7,290z"/>
<path fill="none" stroke="#11D467" stroke-linecap="round" stroke-linejoin="round" stroke-miterlimit="10" d="M6.1,108.4
	c0-0.1,0-0.2,0-0.3"/>
<path fill="none" stroke="#11D467" stroke-linecap="round" stroke-linejoin="round" stroke-miterlimit="10" d="M197.3,309.8
	l-92.6-0.2c-7.9,0-15-4.7-18.1-12L7.2,113.3c-0.7-1.7-1.1-3.5-1.1-5.2c0-0.4,0-0.8,0-1.1c0-0.1,0-0.1,0-0.2
	C7,92.3,21.2,89.9,29.2,89.9c-4.1,0-8.1,1.7-10.6,4.9c0,0,0,0.1-0.1,0.1c-3.1,3.9-3.7,9-1.8,13.5l79.2,181.5
	c3.1,7.2,10.2,11.8,18.1,11.8l90.4,0.2c2.6,0,5.5-0.4,8.1-1.5c2-0.8,3.7-1.9,4.9-3.5c1.3-1.7,2-3.6,2.3-5.7c0,0,0,0,0-0.1
	c0-0.4,0.1-0.8,0.1-1.2C219.7,296.6,220.3,309.9,197.3,309.8z"/>
<path fill="#11D467" stroke="#11D467" stroke-linecap="round" stroke-linejoin="round" stroke-miterlimit="10" d="M35.9,171
	C35.9,171,35.9,170.9,35.9,171c0.1,0,0.2,0,0.2,0c0,0,0.1,0,0.1,0c0,0,0.1,0,0.1,0c0,0,0.1,0,0.1,0c0,0,0.1,0,0.1,0c0,0,0.1,0,0.1,0
	c0,0,0.1,0,0.1,0c0,0,0.1,0,0.1,0c0,0,0.1,0,0.1,0c0,0,0.1,0,0.1,0c0,0,0.1,0,0.1,0c0,0,0.1,0,0.1,0c0,0,0.1,0,0.1,0
	c0,0,0.1,0,0.1,0c0,0,0.1,0,0.1,0c0,0,0.1,0,0.1,0c0,0,0.1,0,0.1,0c0,0,0.1,0,0.1,0c0,0,0.1,0,0.1,0c0,0,0.1,0,0.1,0
	c0,0,0.1,0,0.1,0c0,0,0.1,0,0.1,0c0,0,0.1,0,0.1,0c0,0,0.1,0,0.1,0c0,0,0.1,0,0.1,0c0,0,0.1,0,0.1,0c0,0,0.1,0,0.1,0
	c0.2,0,0.4-0.1,0.6-0.3c0.6-0.8,0.6-2.8-0.2-4.5l-11-25.3c-0.6-1.3-1.4-2.1-2-2c0,0-0.1,0-0.1,0c0,0-0.1,0-0.1,0c0,0-0.1,0-0.1,0
	c0,0-0.1,0-0.1,0c0,0-0.1,0-0.1,0c0,0-0.1,0-0.1,0c0,0-0.1,0-0.1,0c0,0-0.1,0-0.1,0c0,0-0.1,0-0.1,0c0,0-0.1,0-0.1,0
	c0,0-0.1,0-0.1,0c0,0-0.1,0-0.1,0c0,0-0.1,0-0.1,0c0,0-0.1,0-0.1,0c0,0-0.1,0-0.1,0c0,0-0.1,0-0.1,0c0,0-0.1,0-0.1,0
	c0,0-0.1,0-0.1,0c0,0-0.1,0-0.1,0c0,0-0.1,0-0.1,0c0,0-0.1,0-0.1,0c0,0-0.1,0-0.1,0c0,0-0.1,0-0.1,0c0,0-0.1,0-0.1,0
	c0,0-0.1,0-0.1,0c0,0-0.1,0-0.1,0c0,0-0.1,0-0.1,0c0,0-0.1,0-0.1,0c0,0-0.1,0-0.1,0c0,0-0.1,0-0.1,0c-0.2,0-0.4,0.1-0.6,0.3
	c-0.6,0.8-0.6,2.8,0.2,4.5l11,25.3c0.6,1.3,1.4,2.1,2,2C35.7,171,35.8,171,35.9,171C35.8,171,35.8,171,35.9,171z"/>
<path fill="#3BF486" stroke="#11D467" stroke-linecap="round" stroke-linejoin="round" stroke-miterlimit="10" d="M36.2,170.7
	L36.2,170.7c-0.6,0.8-1.8,0-2.5-1.7l-11-25.3c-0.7-1.7-0.8-3.7-0.2-4.5h0c0.6-0.8,1.8,0,2.5,1.7l11,25.3
	C36.8,167.9,36.8,169.9,36.2,170.7z"/>
<path fill="none" stroke="#11D467" stroke-linecap="round" stroke-linejoin="round" stroke-miterlimit="10" d="M206.6,295.7
	l-92.7-0.2c-5.3,0-10.1-3.2-12.3-8.1L22.5,105.8c-2-4.5,1.4-9.6,6.3-9.6l19.3,0.1c1,0,1.9,0.3,2.7,0.8c0.8,0.5,1.4,1.2,1.8,2.1
	c1,2.2,3.9,4.1,6.3,4.1h45.1c1.8,0,3-1,3-2.5c0-0.5-0.1-1-0.4-1.6c-0.6-1.3,0.4-2.7,1.8-2.7l5.8,0c9.3,0,17.8,5.5,21.6,14l17,37.7
	l0,0.1v0c-0.1,0-0.3-0.1-0.4-0.1c0,0,0,0,0,0c-0.2-0.1-0.4-0.1-0.6-0.2c-0.2,0-0.4-0.1-0.6-0.1c-10.8-2.3-22.2,3-28.1,13.4
	c-0.3,0.6-0.6,1.1-0.9,1.7c-0.3,0.5-0.5,1.1-0.7,1.7c-5.5,13.4-0.3,29,12.1,35.4c1.3,0.7,2.6,1.2,3.9,1.6c1,0.3,1.9,0.6,2.9,0.7
	c0.1,0,0.3,0.1,0.4,0.1c0,0,0.1,0,0.1,0l0,0l5.7,1.1c0.3,0.1,0.7,0.1,1,0.2c0.1,0,0.2,0,0.3,0c0.2,0,0.5,0.1,0.7,0.1
	c0.1,0,0.3,0,0.4,0c0.2,0,0.4,0,0.6,0.1c0.1,0,0.3,0,0.4,0c0.2,0,0.4,0,0.6,0c0.2,0,0.3,0,0.5,0c0.2,0,0.4,0,0.6,0
	c0.2,0,0.3,0,0.5,0c0.2,0,0.4,0,0.6,0c0.2,0,0.3,0,0.5,0c0.2,0,0.4,0,0.6,0c0.2,0,0.3,0,0.5-0.1c0.2,0,0.4,0,0.6-0.1
	c0.2,0,0.3,0,0.5-0.1c0.2,0,0.4-0.1,0.5-0.1c0.2,0,0.3-0.1,0.5-0.1c0.2,0,0.4-0.1,0.5-0.1c0.2,0,0.3-0.1,0.5-0.1
	c0.2,0,0.4-0.1,0.5-0.1c0.2,0,0.3-0.1,0.5-0.1c0.2-0.1,0.4-0.1,0.5-0.2c0.2,0,0.3-0.1,0.5-0.1c0.2-0.1,0.4-0.1,0.5-0.2
	c0.1-0.1,0.3-0.1,0.4-0.2c0.2-0.1,0.4-0.1,0.5-0.2c0.1-0.1,0.3-0.1,0.4-0.2c0.2-0.1,0.4-0.2,0.5-0.2c0.1-0.1,0.3-0.1,0.4-0.2
	c0,0,0.1,0,0.1-0.1c0.1,0,0.1-0.1,0.2-0.1c0.3-0.2,0.7-0.3,1-0.5c0.1-0.1,0.2-0.1,0.3-0.2c0.4-0.2,0.8-0.5,1.2-0.7c0,0,0,0,0.1,0
	c0.1-0.1,0.2-0.1,0.2-0.2c0.2-0.1,0.4-0.3,0.7-0.4c0.1-0.1,0.2-0.2,0.4-0.3c0.2-0.1,0.4-0.3,0.6-0.4c0.1,0,0.1-0.1,0.2-0.1
	c0.1-0.1,0.1-0.1,0.2-0.2c0.1-0.1,0.3-0.2,0.4-0.3c0.1-0.1,0.3-0.2,0.4-0.3c0.1-0.1,0.3-0.2,0.4-0.4c0.1-0.1,0.1-0.1,0.2-0.2
	c0.1-0.1,0.1-0.1,0.2-0.2c0.1-0.1,0.2-0.2,0.3-0.3c0.1-0.1,0.3-0.3,0.4-0.4c0.1-0.1,0.2-0.2,0.3-0.3c0.1-0.1,0.1-0.1,0.2-0.2
	c0.1-0.1,0.2-0.2,0.3-0.3c0.1-0.1,0.2-0.2,0.3-0.3c0.2-0.2,0.3-0.3,0.4-0.5c0.1-0.1,0.2-0.2,0.2-0.3c0,0,0,0,0.1-0.1
	c0.2-0.2,0.4-0.5,0.6-0.7c0,0,0,0,0-0.1c0.2-0.2,0.4-0.5,0.5-0.7l41.2,91.6C216.4,289.6,212.5,295.7,206.6,295.7z"/>
<ellipse transform="matrix(0.6038 -0.7972 0.7972 0.6038 -54.4529 86.6708)" fill="#11D467" stroke="#11D467" stroke-linecap="round" stroke-linejoin="round" stroke-miterlimit="10" cx="60" cy="98.1" rx="1.7" ry="2.3"/>
<path fill="#11D467" stroke="#11D467" stroke-linecap="round" stroke-linejoin="round" stroke-miterlimit="10" d="M100.6,99.5h-34
	c-1,0-2-0.6-2.2-1.3h0c-0.2-0.7,0.4-1.3,1.3-1.3h34c1,0,2,0.6,2.2,1.3l0,0C102.2,98.9,101.6,99.5,100.6,99.5z"/>
<path fill="#11D467" stroke="#11D467" stroke-linecap="round" stroke-linejoin="round" stroke-miterlimit="10" d="M147.3,224.3
	h-28.7L102.4,187l14.4-33l4.7,10.7c-5.5,13.4-0.3,29,12.1,35.4c1.3,0.7,2.6,1.2,3.9,1.6L147.3,224.3z"/>
<path fill="#0DBC54" stroke="#11D467" stroke-linecap="round" stroke-linejoin="round" stroke-miterlimit="10" d="M88,154l14.3,33
	l14.4-33H88z"/>
<polyline fill="none" stroke="#11D467" stroke-linecap="round" stroke-linejoin="round" stroke-miterlimit="10" points="
	140.9,202.6 151.6,227.2 116.7,227.2 99.2,186.8 83.7,151.1 118.7,151.1 123.1,161.3 "/>
<path fill="#279ED8" d="M149.5,260c-0.8,2.5-3.1,0.3-4.2-0.5c-1.5-1.1-3-2.2-4.5-3.1c-0.9-0.5-1.7-1.2-2.6-1.8
	c-0.5-0.3-2.2-1-1.8-1.8c0.3-0.6,1.4-1.2,1.9-1.7c0.7-0.7,1.5-1.3,2.2-2c1.6-1.4,3.2-2.9,4.7-4.4c0.5-0.5,3.7-3.1,3.4-3.7
	c0-0.1-9.5,5.8-10.3,6.3c-1.7,1.1-3.4,2.1-5,3.2c-0.4,0.2-0.6,0.5-1,0.4c-0.4,0-0.9-0.3-1.2-0.4c-1.1-0.4-2.2-0.7-3.3-1.1
	c-0.7-0.2-2-0.4-2.6-0.9c-0.8-0.8,0.2-1.4,0.8-1.7c1.9-0.9,3.9-1.6,5.8-2.3c6.4-2.4,12.8-4.7,19.2-7.1c0.8-0.3,2.2-1.1,3.1-0.7
	c0.8,0.4,0.4,2,0.3,2.7c-0.4,2.2-0.9,4.4-1.4,6.5C151.8,250.7,150.6,255.3,149.5,260z"/>
<path fill="#3FBDEF" d="M148.7,241.1c0.1,0.4-1.6,1.8-1.9,2.1c-2.6,2.6-5.4,5.1-8.2,7.6c-0.6,0.6-1.7,1.2-2.2,1.9
	c-0.1,0.1-0.1,0.3-0.2,0.4c0,0,0,0,0,0c-0.1,0.6,0.2,1.5,0.1,2c-0.2,1.8-0.3,3.5-0.3,5.3l-0.2-0.1c-0.2-0.1-3.1-7.8-3.7-9.5
	c0.8-0.2,1.8-1,2.5-1.4c0.9-0.5,1.8-1.1,2.6-1.7c1.6-1,3.3-2.1,4.9-3.1c1.6-1,3.3-2,4.9-3C147.4,241.7,148.6,240.7,148.7,241.1z"/>
<path fill="#0F7EAA" d="M141,256.4c-0.9,0.8-1.8,1.6-2.7,2.4c-0.4,0.4-1.7,2.1-2.4,1.6c0,0,0-0.1,0-0.1c0.1-1.8,0.2-3.5,0.3-5.3
	c0-0.5,0-1.2,0.1-1.8c0,0,0,0,0,0c0,0,0,0,0-0.1c0.4,0.7,1.7,1.2,2.4,1.6C139.5,255.4,140.3,255.9,141,256.4z"/>
<line fill="none" stroke="#11D467" stroke-linecap="round" stroke-linejoin="round" stroke-miterlimit="10" x1="137" y1="89.2" x2="162.2" y2="46.2"/>
<line fill="none" stroke="#11D467" stroke-linecap="round" stroke-linejoin="round" stroke-miterlimit="10" x1="165" y1="41.4" x2="179.8" y2="16.1"/>
<line fill="none" stroke="#11D467" stroke-linecap="round" stroke-linejoin="round" stroke-miterlimit="10" x1="117.3" y1="79.8" x2="120.7" y2="40.9"/>
<line fill="none" stroke="#11D467" stroke-linecap="round" stroke-linejoin="round" stroke-miterlimit="10" x1="121.1" y1="36.6" x2="123.1" y2="13.7"/>
<line fill="none" stroke="#11D467" stroke-linecap="round" stroke-linejoin="round" stroke-miterlimit="10" x1="79.3" y1="14.7" x2="89.6" y2="52.4"/>
<line fill="none" stroke="#11D467" stroke-linecap="round" stroke-linejoin="round" stroke-miterlimit="10" x1="90.8" y1="56.6" x2="96.8" y2="78.7"/>
<line fill="none" stroke="#11D467" stroke-linecap="round" stroke-linejoin="round" stroke-miterlimit="10" x1="222.5" y1="257.9" x2="269" y2="287.1"/>
<line fill="none" stroke="#11D467" stroke-linecap="round" stroke-linejoin="round" stroke-miterlimit="10" x1="274.2" y1="290.4" x2="301.5" y2="307.6"/>
<line fill="none" stroke="#11D467" stroke-linecap="round" stroke-linejoin="round" stroke-miterlimit="10" x1="214" y1="237.2" x2="267.4" y2="245.4"/>
<line fill="none" stroke="#11D467" stroke-linecap="round" stroke-linejoin="round" stroke-miterlimit="10" x1="273.4" y1="246.3" x2="304.7" y2="251"/>
<line fill="none" stroke="#11D467" stroke-linecap="round" stroke-linejoin="round" stroke-miterlimit="10" x1="303" y1="203.2" x2="253.7" y2="212.8"/>
<line fill="none" stroke="#11D467" stroke-linecap="round" stroke-linejoin="round" stroke-miterlimit="10" x1="248.1" y1="213.8" x2="219.2" y2="219.5"/>
<line fill="none" stroke="#11D467" stroke-linecap="round" stroke-linejoin="round" stroke-miterlimit="10" x1="247.7" y1="142.6" x2="302.4" y2="148.2"/>
<line fill="none" stroke="#11D467" stroke-linecap="round" stroke-linejoin="round" stroke-miterlimit="10" x1="308.5" y1="148.9" x2="340.6" y2="152.2"/>
<line fill="none" stroke="#11D467" stroke-linecap="round" stroke-linejoin="round" stroke-miterlimit="10" x1="225.6" y1="129.8" x2="280.2" y2="112.3"/>
<line fill="none" stroke="#11D467" stroke-linecap="round" stroke-linejoin="round" stroke-miterlimit="10" x1="286.3" y1="110.3" x2="318.4" y2="100"/>
<line fill="none" stroke="#11D467" stroke-linecap="round" stroke-linejoin="round" stroke-miterlimit="10" x1="297.3" y1="60.4" x2="264.2" y2="85.1"/>
<line fill="none" stroke="#11D467" stroke-linecap="round" stroke-linejoin="round" stroke-miterlimit="10" x1="260.5" y1="87.9" x2="241.1" y2="102.4"/>
<g>
	<path fill="#11D467" d="M79.7,115c0.3,0.8,0.7,1.6,1,2.4c-0.1,0-0.1,0-0.2,0c-1.7,0-3.3,0-5,0c-0.2,0-0.2,0-0.1,0.2
		c0.4,1,0.8,2,1.2,3c0.1,0.2,0.1,0.2,0.3,0.2c2.3,0,4.6,0,6.9,0c0.2,0,0.4,0,0.6,0c0.2,0,0.2,0,0.1-0.2c-0.3-0.8-0.7-1.6-1-2.4
		c-0.4-1-0.8-2-1.2-3c0-0.1-0.1-0.1-0.1-0.2c0.1,0,0.2,0,0.2,0c6.1,0,12.1,0,18.2,0c0.2,0,0.2,0,0.3,0.2c1.1,2.6,2.2,5.2,3.3,7.8
		c0.1,0.2,0.1,0.2-0.1,0.2c-2.5,0-5,0-7.4,0c-0.1,0-0.1,0-0.2,0c-0.3-0.8-0.7-1.6-1-2.4c0.1,0,0.2,0,0.2,0c1.7,0,3.3,0,5,0
		c0.2,0,0.2,0,0.1-0.2c-0.4-1-0.8-2-1.2-2.9c-0.1-0.2-0.1-0.2-0.3-0.2c-4.4,0-8.9,0-13.3,0c-0.2,0-0.2,0-0.1,0.2c0.4,1,0.8,2,1.2,3
		c0.1,0.2,0.1,0.2,0.3,0.2c1.8,0,3.6,0,5.4,0c0.1,0,0.2,0,0.3,0c2.8,6.7,5.5,13.3,8.3,19.9c-2.8,0-5.5,0-8.3,0
		c-0.3-0.8-0.7-1.6-1-2.4c0.1,0,0.2,0,0.2,0c1.8,0,3.6,0,5.4,0c0.2,0,0.2,0,0.1-0.2c-2-4.9-4.1-9.7-6.1-14.6
		c-0.1-0.2-0.1-0.2-0.3-0.2c-0.8,0-1.6,0-2.5,0c-0.2,0-0.3,0-0.5,0c-0.2,0-0.2,0-0.1,0.2c0.2,0.3,0.3,0.7,0.4,1
		c1.5,3.7,3.1,7.4,4.6,11.1c0,0.1,0.1,0.2,0.1,0.3c-0.8,0-1.6,0-2.4,0c0-0.1-0.1-0.2-0.1-0.2c-1.7-4-3.4-8.1-5-12.1
		c-0.1-0.3-0.1-0.3-0.4-0.3c-3.3,0-6.6,0-9.8,0c-0.2,0-0.2,0-0.3-0.2c-1.1-2.6-2.2-5.2-3.3-7.8c-0.1-0.2-0.1-0.2,0.1-0.2
		c2.5,0,4.9,0,7.4,0C79.5,115,79.6,115,79.7,115z"/>
	<path fill="#11D467" d="M95.9,137c-0.3,0-0.5,0-0.8,0c-1.7-4.1-3.4-8.3-5.2-12.4c0.3,0,0.5,0,0.8,0C92.4,128.8,94.2,132.9,95.9,137
		z"/>
	<path fill="#11D467" d="M87.8,119.5c-0.1-0.3-0.2-0.5-0.3-0.8c0.1,0,0.1,0,0.2,0c3.6,0,7.2,0,10.7,0c0.2,0,0.2,0,0.3,0.2
		c0,0.1,0.1,0.3,0.2,0.5c0,0.1,0,0.1-0.1,0.1c0,0-0.1,0-0.1,0c-3.5,0-7.1,0-10.6,0C88,119.5,87.9,119.5,87.8,119.5z"/>
	<path fill="#11D467" d="M77.5,119.5c-0.1-0.2-0.2-0.5-0.3-0.7c0,0,0-0.1,0-0.1c0,0,0.1,0,0.1,0c1.6,0,3.2,0,4.8,0
		c0.2,0,0.3,0,0.3,0.2c0.1,0.2,0.1,0.4,0.2,0.5C81,119.5,79.2,119.5,77.5,119.5z"/>
</g>
</svg>
